<?xml version="1.0" encoding="utf-8"?>
<!-- Generator: Adobe Illustrator 24.3.0, SVG Export Plug-In . SVG Version: 6.00 Build 0)  -->
<svg version="1.0" id="Layer_1" xmlns="http://www.w3.org/2000/svg" xmlns:xlink="http://www.w3.org/1999/xlink" x="0px" y="0px"
	 viewBox="0 0 1038.96 765.08" style="enable-background:new 0 0 1038.96 765.08;" xml:space="preserve">
<style type="text/css">
	.st0{fill-rule:evenodd;clip-rule:evenodd;fill:#F2DC00;stroke:#283583;stroke-width:4;}
	.st1{fill-rule:evenodd;clip-rule:evenodd;fill:#CD1719;stroke:#000000;}
	.st2{fill-rule:evenodd;clip-rule:evenodd;fill:#F2DC00;stroke:#000000;stroke-width:1.5;}
	.st3{fill:#F2DC00;stroke:#000000;stroke-width:1.5276;}
	.st4{fill-rule:evenodd;clip-rule:evenodd;fill:#CD1719;}
	.st5{fill-rule:evenodd;clip-rule:evenodd;fill:#F2DC00;stroke:#000000;stroke-width:2;}
	.st6{fill-rule:evenodd;clip-rule:evenodd;fill:#283583;}
	.st7{fill:#F2DC00;}
	.st8{fill-rule:evenodd;clip-rule:evenodd;fill:#F2DC00;}
	.st9{fill-rule:evenodd;clip-rule:evenodd;}
	.st10{fill:#F2DC00;stroke:#000000;}
	.st11{fill-rule:evenodd;clip-rule:evenodd;fill:#F2DC00;stroke:#000000;}
	.st12{fill-rule:evenodd;clip-rule:evenodd;fill:#283583;stroke:#000000;}
	.st13{fill:#283583;}
	.st14{fill:#FFFFFF;}
	.st15{fill:#F2DC00;stroke:#000000;stroke-width:2;}
</style>
<g>
	<path class="st0" d="M469.87,145.41c0-26.9,21.8-48.65,48.74-48.65c26.8,0,48.63,21.75,48.63,48.65
		c0,26.96-21.83,48.76-48.63,48.76C491.67,194.18,469.87,172.37,469.87,145.41z"/>
	<path class="st1" d="M643.89,558.55c-23.04,0-41.78,18.74-41.78,41.83c0,22.98,18.74,41.67,41.78,41.67
		c23.09,0,41.73-18.69,41.73-41.67C685.62,577.29,666.98,558.55,643.89,558.55z"/>
	<path class="st2" d="M646.25,571.66c0,0,0.5-2.46-1.63-4.51c-1.54-1.36-3.2-1.36-4.72-2.78c-1.49-1.62-1.6-3.72-1.6-3.72
		s-3.83,2.94-3.33,5.92c1,6.13,4.54,5.97,4.54,5.97L646.25,571.66z M635.08,573.07c0,0-0.6-2.57-3.2-3.51
		c-1.99-0.79-3.49-0.05-5.48-0.84c-2.07-0.89-2.91-2.72-2.91-2.72s-2.36,4.09-0.79,6.6c3.22,5.4,6.5,3.72,6.5,3.72L635.08,573.07z
		 M625.23,578.63c0,0-1.44-2.15-4.35-1.99c-2.04,0.05-3.17,1.21-5.27,1.21c-2.28,0-3.75-1.36-3.75-1.36s-0.6,4.72,1.78,6.5
		c5.14,3.72,7.39,0.84,7.39,0.84L625.23,578.63z M618.28,587.54c0,0-2.1-1.41-4.77-0.21c-1.81,0.84-2.44,2.31-4.4,3.2
		c-2.1,0.84-3.98,0.1-3.98,0.1s1.21,4.67,4.09,5.3c6.13,1.46,7.23-1.99,7.23-1.99L618.28,587.54z M615.3,598.34
		c0,0-2.54-0.42-4.48,1.68c-1.42,1.47-1.36,3.2-2.86,4.72c-1.52,1.57-3.62,1.57-3.62,1.57s2.91,3.83,5.84,3.41
		c6.21-1.05,5.9-4.67,5.9-4.67L615.3,598.34z M616.71,609.61c0,0-2.54,0.52-3.54,3.2c-0.73,1.89-0.05,3.51-0.84,5.45
		c-0.89,2.04-2.8,2.93-2.8,2.93s4.22,2.36,6.76,0.79c5.32-3.35,3.67-6.55,3.67-6.55L616.71,609.61z M622.29,619.36
		c0,0-2.15,1.52-2.04,4.46c0.03,1.94,1.26,3.09,1.26,5.35c0,2.15-1.36,3.56-1.36,3.56s4.66,0.73,6.39-1.73
		c3.64-5.08,0.97-7.44,0.97-7.44L622.29,619.36z M631.21,626.27c0,0-1.44,2.2-0.21,4.88c0.89,1.78,2.36,2.36,3.2,4.4
		c0.84,1.99,0.05,3.98,0.05,3.98s4.64-1.26,5.32-4.19c1.54-6.03-1.94-7.23-1.94-7.23L631.21,626.27z M642,629.31
		c0,0-0.42,2.52,1.62,4.51c1.52,1.41,3.22,1.31,4.69,2.83c1.57,1.57,1.68,3.72,1.68,3.72s3.8-2.99,3.27-5.98
		c-0.89-6.08-4.59-5.92-4.59-5.92L642,629.31z M653.22,627.95c0,0,0.6,2.52,3.25,3.56c1.89,0.63,3.43,0,5.42,0.84
		c2.02,0.84,2.86,2.62,2.86,2.62s2.38-4.09,0.84-6.61c-3.28-5.34-6.5-3.72-6.5-3.72L653.22,627.95z M663.02,622.34
		c0,0,1.49,2.2,4.4,2.04c1.94-0.11,3.12-1.31,5.27-1.31c2.25,0,3.75,1.47,3.75,1.47s0.63-4.77-1.86-6.5
		c-5.06-3.72-7.37-0.94-7.37-0.94L663.02,622.34z M669.89,613.49c0,0,2.2,1.41,4.87,0.21c1.89-0.89,2.46-2.41,4.43-3.25
		c2.1-0.84,3.98-0.1,3.98-0.1s-1.28-4.61-4.22-5.29c-6.05-1.47-7.21,2.04-7.21,2.04L669.89,613.49z M672.98,602.58
		c0,0,2.52,0.47,4.51-1.57c1.31-1.52,1.31-3.25,2.83-4.77c1.55-1.47,3.67-1.57,3.67-1.57s-2.94-3.72-5.92-3.3
		c-6.11,0.94-5.9,4.56-5.9,4.56L672.98,602.58z M671.62,591.47c0,0,2.38-0.53,3.56-3.3c0.63-1.89,0-3.41,0.79-5.35
		c0.79-2.04,2.7-2.99,2.7-2.99s-4.11-2.31-6.66-0.79c-5.32,3.35-3.67,6.45-3.67,6.45L671.62,591.47z M666.01,581.62
		c0,0,2.1-1.52,2.04-4.35c-0.08-1.94-1.31-3.2-1.31-5.35c0-2.2,1.41-3.72,1.41-3.72s-4.72-0.58-6.53,1.89
		c-3.56,5.03-0.94,7.34-0.94,7.34L666.01,581.62z M657.1,574.64c0,0,1.44-2.1,0.18-4.77c-0.81-1.83-2.38-2.41-3.17-4.4
		c-0.84-2.1-0.16-4.04-0.16-4.04s-4.64,1.31-5.32,4.3c-1.39,5.98,2.02,7.18,2.02,7.18L657.1,574.64z"/>
	<path class="st3" d="M672.86,600.52c0,15.85-12.85,28.7-28.7,28.7c-15.85,0-28.71-12.85-28.71-28.7
		c0-15.85,12.85-28.71,28.71-28.71C660.01,571.82,672.86,584.67,672.86,600.52z"/>
	<path class="st4" d="M392.96,556.24c-24.32,0-44.08,19.71-44.08,44.13c0,24.32,19.76,44.03,44.08,44.03
		c24.35,0,44.06-19.71,44.06-44.03C437.02,575.95,417.31,556.24,392.96,556.24z M392.97,639.1c-21.45,0-38.85-17.29-38.85-38.72
		c0-21.53,17.4-38.93,38.85-38.93c21.43,0,38.85,17.4,38.85,38.93C431.82,621.81,414.39,639.1,392.97,639.1z"/>
	<path class="st5" d="M354.11,600.38c0-21.53,17.4-38.93,38.85-38.93c21.43,0,38.85,17.4,38.85,38.93
		c0,21.43-17.43,38.72-38.85,38.72C371.51,639.1,354.11,621.81,354.11,600.38z"/>
	<path class="st6" d="M392.97,553.12c-26.05,0-47.2,21.11-47.2,47.26c0,26.05,21.16,47.15,47.2,47.15
		c26.07,0,47.18-21.1,47.18-47.15C440.14,574.23,419.04,553.12,392.97,553.12z M392.96,644.41c-24.32,0-44.08-19.71-44.08-44.03
		c0-24.42,19.76-44.13,44.08-44.13c24.35,0,44.06,19.71,44.06,44.13C437.02,624.7,417.31,644.41,392.96,644.41z"/>
	<path class="st6" d="M643.66,553.35c-26.05,0-47.21,21.11-47.21,47.26c0,26.05,21.16,47.15,47.21,47.15
		c26.07,0,47.18-21.1,47.18-47.15C690.84,574.46,669.73,553.35,643.66,553.35z M643.66,644.64c-24.32,0-44.08-19.71-44.08-44.03
		c0-24.42,19.76-44.13,44.08-44.13c24.35,0,44.06,19.71,44.06,44.13C687.72,624.93,668.01,644.64,643.66,644.64z"/>
	<path class="st7" d="M699.31,666.49v-0.97c0-6.93-5.64-12.57-12.62-12.57H523.14h-9.42H350.19c-6.96,0-12.59,5.64-12.59,12.57v0.97
		h-7.57v10.04h376.91v-10.04H699.31z"/>
	<path class="st8" d="M558.85,633.09c-0.91-1.07-2.74-2.26-4.22-3.06l-1.02-0.59c14.31-12.19,27.31-28.89,24.86-49.08
		c-1.99-16-14.77-24.7-29.94-23.31h-10.29c-0.88-0.64-1.21-1.5-1.21-2.47c0-0.91,0.46-1.72,1.24-2.09l0.08-0.38h8
		c2.93,0,5.4-2.31,5.4-5.37c0-2.9-2.47-5.26-5.4-5.26h-25.8h-4.16h-25.94c-2.85,0-5.26,2.36-5.26,5.26c0,3.06,2.42,5.37,5.26,5.37
		h8.05l0.05,0.38c0.81,0.38,1.24,1.18,1.24,2.09c0,0.97-0.27,1.83-1.13,2.47h-10.36c-15.14-1.4-27.87,7.3-29.94,23.31
		c-2.47,20.19,10.63,36.89,24.86,49.08l-0.96,0.59c-1.45,0.8-3.36,1.99-4.27,3.06c-3.11,3.92-4.89,8.16-10.12,9.24
		c-1.02,0.27-2.93,0.32-2.93,0.32v11.06H571.9v-11.06c0,0-1.88-0.05-2.85-0.32C563.74,641.25,561.91,637.01,558.85,633.09z
		 M491.24,619.5c0,0,0,0.01,0,0.02c-0.02-0.02-0.04-0.05-0.05-0.07L491.24,619.5z"/>
	<path class="st4" d="M432.25,366.99c0-48.06,38.96-87.1,87.05-87.1c48.12,0,87.13,39.04,87.13,87.1
		c0,48.17-39.01,87.11-87.13,87.11C471.21,454.1,432.25,415.16,432.25,366.99z"/>
	<path class="st8" d="M588.85,398.25c-2.47-0.43-6.04-2.68-7.01-5c-0.97-2.36,0.27-6.77,2.34-12.08c3.76-9.67,7.97-16.16,0.67-25.94
		l-0.19-0.38c1.56-4.4,3.44-8.91,2.09-13.86c-0.91-3.33-3.62-6.87-7.28-8.86c2.69-0.59,4.99-1.99,5.37-4.62
		c0.99-6.39-7.87-10.2-9.67-3.92l-0.4,0.38c-0.56-0.11-2.98-1.83-3.3-2.09c-10.26-7.41-20.43-11.44-33.56-10.26
		c-7.98,0.54-11.92,3.49-13.75,6.98c-1.02-2.47-2.23-3.6-5.02-5.48v2.47c0,0.8-2.26,2.31-2.85,2.63c-1.58-2.04-4.56-5.16-7.25-5.16
		h-1.56c0.38,2.04,0.59,3.01-0.7,4.89l-0.3,0.43c-2.09-2.9-3.6-3.87-7.22-4.51c0.27,2.69,0.54,4.4-1.72,6.28
		c-2.63-2.85-4.38-4.19-8.54-3.54c1.16,2.53,1.16,3.01-0.48,5.26l-0.27,0.32l-0.32,0.05c-2.15,1.02-4.7,1.18-6.9,1.5
		c-4.97-7.57-11.76-1.88-11.25,2.95c0.43,5.05,5.1,5.53,5.69,8.54c-0.48,0-1.02,0-1.66-0.05c-0.38-0.38-0.91-0.81-1.5-1.4
		c-0.62-0.7-2.44-3.06-2.44-3.06s-1.34,2.85-1.56,4.08c-0.83,4.03,0.99,6.71,4.43,7.68c-0.19,1.93,2.09,4.03,1.88,4.73
		c-0.65,2.79,0.38,2.79-1.77,4.99c2.2,3.17,4.56,1.93,7.33,0.16c0.43,1.72,1.56,2.2,3.06,2.42c0.75-0.75,1.53-1.5,2.39-2.15
		c0.16,0.64,0.48,1.45,1.07,2.09c-2.31,1.34-4.54,2.95-6.45,4.94c-2.63,2.68-5.21,9.45-5.64,14.34c-2.01-0.54-5.61-4.99-6.2-5.85
		l-1.56-1.34c0.05-0.43,0.13-0.81,0.13-1.13c0-3.71-3.06-5.32-6.07-5.58h-0.48c0.05-9.08,3.6-43.23,8.08-52.52l1.45-2.85l-2.87,1.4
		c-16.03,8.38-18.71,43.07-18.9,53.54c-0.3,0-0.56,0.05-0.73,0.21c-2.31,0.59-4.59,2.04-4.91,4.62c-0.21,2.85,0.56,5.05,3.3,6.39
		l-0.19,0.32c-1.45,2.95-0.64,4.89,0.99,6.34c-1.15,2.68-0.64,4.73,0.81,5.96c-2.82,2.09-3.3,5.96,0.16,8.32
		c-4.75,2.42-5.93,8.48,3.68,10.15c-1.42,2.74-0.43,7.09,5.02,7.09c5.75,0,6.36-4.3,4.7-7.03c8.24-1.29,8.19-6.18,4.89-9.18
		c1.18,0,2.52-0.43,3.46-0.91c1.34,2.09,3.14,3.97,4.65,5.37c1.88,1.77,4.03,3.38,4.03,3.38c3.3-1.13,5.8-2.69,8.24-5.42l0.67,0.27
		c1.18,0.54,2.63,1.13,3.25,1.45c1.23,2.09,2.26,3.76,2.26,5.21c0,1.77-0.43,7.09-1.21,8.86c-1.85,1.29-4.67-1.5-8.22-0.43
		c-3.57,1.02-10.39,10.15-1.16,12.62l2.09-2.58c0.78,0.81,1.53,2.9,3.89,2.68c0.38-1.24,0.48-1.4,1.34-2.25
		c0.7,1.34,2.28,2.47,4.78,2.47h0.3c2.82-1.13,4.67-4.4,6.93-2.09l0.56,0.64c1.1,1.07,2.34,2.31,4.08,1.61
		c5.15-2.09,0.24-8.59,0.62-11.76c2.01-2.2,6.98-2.79,6.98-8.7v-2.04c-3.01,1.18-8.99,3.76-6.31-2.69l0.05,0.27
		c13.8-1.5,18.5-3.49,28.92-9.56c-0.91,7.57,1.66,8.91,5.72,15.41c1.24,1.61,1.07,4.51,0.27,6.39c-2.42,0.38-5.08-1.07-7.49-0.11
		c-4.11,1.24-8.65,13.05-1.91,13.8c0.38,0.16,1.32,0,1.32,0l1.4-2.15c0.97,1.4,2.2,2.15,3.95,1.83c0.75-0.54,1.29-1.18,1.77-1.88
		c1.24,1.45,2.77,1.83,4.67,1.18c0.29-0.75,1.1-2.25,1.77-3.06c0.4,4.4,4.4,2.74,7.09,0.54c0.19,0.27,0.27,0.59,0.56,0.75
		c1.58,1.66,3.87,1.02,5.61-0.38c0.86,1.61,2.87,1.99,5.32,0.21c0.86,3.44,4.97,1.18,6.36-0.7l0.56-0.64
		c0.73-1.02,1.45-1.56,2.42-0.16l0.38,0.59c2.09,3.49,5.5,0.21,7.41-1.99c1.15-1.61,0.51-6.45,0.29-7.95
		c-0.48-3.17-1.83-3.11,1.24-5.8l1.1-0.91C588.25,402.43,589.27,401.36,588.85,398.25z M543.74,326.23
		c2.39-0.75,2.87-1.45,3.14-3.97c1.67,1.99,2.85,4.67,3.06,7.25c3.36-0.7,3.95-1.93,5.08-4.89l0.29-0.86
		c1.66,2.2,4.35,5.75,7.44,5.37c0.38-0.59,0.81-1.18,1.29-1.77c1.67,1.34,3.38,2.42,5.34,3.22c-2.15,0.21-4.81,0.54-7.54,0.75
		c-6.34,0.64-15.14,1.77-19.33-4.4c-0.24-0.21-1.4-2.85-1.4-2.85l-2.25,3.87c0-0.38,0-0.75,0-1.02c0-1.39,0.43-3.65,0.56-4.83
		C541.48,322.74,542.82,324.19,543.74,326.23z M537.64,321.67c0.48,0.05,0.86,0.21,1.26,0.21h-0.05c-0.94,0.05-2.63,0.32-3.41,0.59
		l-0.43,0.16C535.6,321.88,536.59,321.67,537.64,321.67z M567.47,399.59c-2.9,6.12,0.48,8.27-0.16,10.9
		c-0.13,0.54-3.06-1.02-4.57-0.97c-1.88,0.16-3.22,0.59-4.46,1.02l-0.24-0.21c-0.62-0.48-0.73-1.24-0.65-2.04
		c2.12-3.33,4.67-4.46,4.14-9.45h-1.16c-1.58,0-3.3-0.81-3.6-1.72c0.64-2.31,3.54-4.4,4.27-7.04c0.29,0,0.48,0,0.81,0
		c1.26,2.79,5.61,6.77,6.07,8.16C567.85,398.68,567.71,399.1,567.47,399.59z M575.53,348.3l-0.21,0.43
		c-12.24-6.01-12.11-4.3-24.65-1.5c-10.58,2.47-12.92,1.56-23.63,0.32l-2.74-1.02c-0.24-1.02-0.56-2.04-1.05-2.9
		c0.27-0.7,0.7-1.77,1.05-3.01c0.35,0.32,0.91,0.59,1.37,0.75c0.48,0.32,3.63,1.34,3.63,1.34c-0.59-1.5-2.44-4.51,0.32-5.69
		c0.81,0.43,3.44,1.4,6.9,2.58c10.18,3.17,14.74,4.08,25.03,1.61c1.53-0.27,6.63-1.72,8.03-1.61
		C574.21,339.93,577.25,343.95,575.53,348.3z"/>
	<path class="st9" d="M566.13,644.1h-95.4c-0.86,0.38-1.99,0.64-3.28,0.8v8.81h-2.5v-11.06c0,0,1.91-0.05,2.93-0.32
		c5.24-1.07,7.01-5.32,10.12-9.24c0.91-1.07,2.82-2.26,4.27-3.06l0.96-0.59c-14.23-12.19-27.33-28.89-24.86-49.08
		c2.07-16,14.79-24.7,29.94-23.31h10.36c0.86-0.64,1.13-1.5,1.13-2.47c0-0.91-0.43-1.72-1.24-2.09l-0.05-0.38h-8.05
		c-2.85,0-5.26-2.31-5.26-5.37c0-2.9,2.42-5.26,5.26-5.26h25.94h4.16h25.8c2.93,0,5.4,2.36,5.4,5.26c0,3.06-2.47,5.37-5.4,5.37h-8
		l-0.08,0.38c-0.78,0.38-1.24,1.18-1.24,2.09c0,0.97,0.32,1.83,1.21,2.47h10.29c15.17-1.4,27.95,7.3,29.94,23.31
		c2.44,20.19-10.55,36.89-24.86,49.08l1.02,0.59c1.48,0.8,3.3,1.99,4.22,3.06c3.06,3.92,4.89,8.16,10.2,9.24
		c0.97,0.27,2.85,0.32,2.85,0.32v11.06h-2.47v-8.81C568.17,644.74,567.04,644.47,566.13,644.1z M467.88,608.49h101.18
		c3.38-5.37,5.77-11.17,6.79-17.45H461.03C462.03,597.32,464.42,603.12,467.88,608.49z M466.08,568.21h104.75
		c-5.24-6.55-13.69-9.56-22.18-8.65h-23.44H511.7h-23.49C479.8,558.65,471.32,561.66,466.08,568.21z M520.56,552.1h-4.16h-14.69
		c0.38,0.75,0.56,1.66,0.56,2.47c0,0.81-0.19,1.66-0.51,2.47h9.94h13.51h9.91c-0.35-0.8-0.48-1.66-0.48-2.47
		c0-0.81,0.19-1.72,0.54-2.47H520.56z M520.56,543.89h-4.16h-25.94c-1.53,0-2.79,1.4-2.79,2.85c0,1.67,1.26,2.95,2.79,2.95h25.94
		h4.16h25.8c1.58,0,2.87-1.29,2.87-2.95c0-1.45-1.29-2.85-2.87-2.85H520.56z M460.74,588.51h115.38c0.16-1.61,0.22-3.49,0.11-5.48
		H460.68C460.55,585.02,460.6,586.9,460.74,588.51z M472.66,615.2h91.59c1.07-1.4,2.15-2.85,3.06-4.19h-97.77
		C470.51,612.36,471.56,613.81,472.66,615.2z M555.77,641.41c-0.86-1.24-4.46-3.12-6.04-6.55c-1.72-3.6,0.86-3.22,0.86-3.22
		l2.71,5.53l0.86,0.05l-2.63-5.53c0,0,2.47,0.11,4.21,3.7c1.69,3.44-0.29,4.78,0,5.91L555.77,641.41z M545.69,641.57
		c-0.78-1.29-4.75-3.22-6.07-6.71c-1.26-3.76,1.85-3.33,1.85-3.33l2.09,5.64l1.21,0.05l-2.18-5.69c0,0,3.04,0,4.43,3.76
		c1.29,3.54-1.45,4.99-1.4,6.12L545.69,641.57z M534.04,641.68c-0.83-1.4-5.53-3.54-6.74-7.2c-1.15-3.71,2.69-3.12,2.69-3.12
		l1.93,5.69l1.42,0.32l-1.91-5.91c0,0,3.73,0.21,5.02,3.97c1.18,3.65-2.42,4.94-2.42,6.01V641.68z M518.44,641.68
		c-0.46-1.29-5.64-2.95-5.64-6.66c0.05-3.65,4.7-3.54,4.7-3.54v5.75h1.83v-5.75c0,0,4.67-0.11,4.67,3.54
		c0.05,3.71-5.08,5.37-5.56,6.55V641.68z M481.15,641.41c0.89-1.24,4.43-3.12,6.04-6.55c1.67-3.6-0.91-3.22-0.91-3.22l-2.66,5.53
		l-0.91,0.05l2.66-5.53c0,0-2.47,0.11-4.22,3.7c-1.67,3.44,0.27,4.78,0,5.91V641.41z M491.19,641.57c0.75-1.29,4.73-3.22,6.09-6.71
		c1.29-3.76-1.88-3.33-1.88-3.33l-2.12,5.64l-1.05,0.05l2.04-5.69c0,0-3.03,0-4.4,3.76c-1.34,3.54,1.48,4.99,1.37,6.12
		L491.19,641.57z M502.84,641.68c0.83-1.4,5.56-3.54,6.71-7.2c1.21-3.71-2.66-3.12-2.66-3.12l-1.93,5.69l-1.37,0.32l1.85-5.91
		c0,0-3.79,0.21-5.02,3.97c-1.26,3.65,2.47,4.94,2.42,6.01V641.68z M555.77,619.5c-0.86,1.34-4.46,3.11-6.04,6.55
		c-1.72,3.6,0.86,3.17,0.86,3.17l2.71-5.37l0.86-0.16l-2.63,5.53c0,0,2.47-0.05,4.21-3.65c1.69-3.49-0.29-4.89,0-5.91L555.77,619.5z
		 M545.69,619.45c-0.78,1.18-4.75,3.12-6.07,6.61c-1.26,3.71,1.85,3.44,1.85,3.44l2.09-5.64l1.21-0.16l-2.18,5.69
		c0,0,3.04,0,4.43-3.76c1.29-3.54-1.45-4.99-1.4-6.12L545.69,619.45z M534.04,619.34c-0.83,1.29-5.53,3.44-6.74,7.09
		c-1.15,3.7,2.69,3.17,2.69,3.17l1.93-5.75l1.42-0.21l-1.91,5.85c0,0,3.73-0.27,5.02-4.03c1.18-3.6-2.42-4.99-2.42-6.01V619.34z
		 M518.44,619.29c-0.46,1.18-5.64,2.95-5.64,6.55c0.05,3.76,4.7,3.65,4.7,3.65v-5.8h1.83v5.8c0,0,4.67,0.11,4.67-3.65
		c0.05-3.6-5.08-5.37-5.56-6.39V619.29z M527.17,575.62c0-1.77-1.45-3.17-3.22-3.17c-1.72,0-3.2,1.4-3.2,3.17
		c0,1.72,1.48,3.11,3.2,3.11C525.72,578.74,527.17,577.34,527.17,575.62z M536.35,575.62c0-1.77-1.4-3.17-3.25-3.17
		c-1.77,0-3.17,1.4-3.17,3.17c0,1.72,1.4,3.11,3.17,3.11C534.95,578.74,536.35,577.34,536.35,575.62z M545.45,575.62
		c0-1.77-1.34-3.17-3.19-3.17c-1.69,0-3.17,1.4-3.17,3.17c0,1.72,1.48,3.11,3.17,3.11C544.11,578.74,545.45,577.34,545.45,575.62z
		 M554.64,575.62c0-1.77-1.34-3.17-3.2-3.17c-1.72,0-3.17,1.4-3.17,3.17c0,1.72,1.45,3.11,3.17,3.11
		C553.29,578.74,554.64,577.34,554.64,575.62z M563.82,575.62c0-1.77-1.42-3.17-3.2-3.17c-1.77,0-3.2,1.4-3.2,3.17
		c0,1.72,1.42,3.11,3.2,3.11C562.4,578.74,563.82,577.34,563.82,575.62z M572.92,575.62c0-1.77-1.4-3.17-3.12-3.17
		c-1.77,0-3.2,1.4-3.2,3.17c0,1.72,1.42,3.11,3.2,3.11C571.53,578.74,572.92,577.34,572.92,575.62z M481.15,619.5
		c0.89,1.34,4.43,3.11,6.04,6.55c1.67,3.6-0.91,3.17-0.91,3.17l-2.66-5.37l-0.91-0.16l2.66,5.53c0,0-2.47-0.05-4.22-3.65
		c-1.67-3.49,0.27-4.89,0-5.91V619.5z M491.19,619.45c0.75,1.18,4.73,3.12,6.09,6.61c1.29,3.71-1.88,3.44-1.88,3.44l-2.12-5.64
		l-1.05-0.16l2.04,5.69c0,0-3.03,0-4.4-3.76c-1.34-3.54,1.48-4.99,1.37-6.12L491.19,619.45z M502.84,619.34
		c0.83,1.29,5.56,3.44,6.71,7.09c1.21,3.7-2.66,3.17-2.66,3.17l-1.93-5.75l-1.37-0.21l1.85,5.85c0,0-3.79-0.27-5.02-4.03
		c-1.26-3.6,2.47-4.99,2.42-6.01V619.34z M509.74,575.62c0-1.77,1.4-3.17,3.19-3.17c1.77,0,3.17,1.4,3.17,3.17
		c0,1.72-1.4,3.11-3.17,3.11C511.14,578.74,509.74,577.34,509.74,575.62z M500.56,575.62c0-1.77,1.42-3.17,3.2-3.17
		c1.75,0,3.25,1.4,3.25,3.17c0,1.72-1.5,3.11-3.25,3.11C501.98,578.74,500.56,577.34,500.56,575.62z M491.38,575.62
		c0-1.77,1.42-3.17,3.2-3.17c1.75,0,3.25,1.4,3.25,3.17c0,1.72-1.5,3.11-3.25,3.11C492.8,578.74,491.38,577.34,491.38,575.62z
		 M482.27,575.62c0-1.77,1.34-3.17,3.19-3.17c1.72,0,3.11,1.4,3.11,3.17c0,1.72-1.4,3.11-3.11,3.11
		C483.62,578.74,482.27,577.34,482.27,575.62z M473.12,575.62c0-1.77,1.4-3.17,3.17-3.17c1.77,0,3.12,1.4,3.12,3.17
		c0,1.72-1.34,3.11-3.12,3.11C474.51,578.74,473.12,577.34,473.12,575.62z M463.93,575.62c0-1.77,1.4-3.17,3.11-3.17
		c1.75,0,3.25,1.4,3.25,3.17c0,1.72-1.5,3.11-3.25,3.11C465.33,578.74,463.93,577.34,463.93,575.62z"/>
	<path class="st10" d="M428.54,522.24c-3.65,0.75-5.96,2.9-10.53,2.74c-6.74-0.21-8.22-3.76-11.28-4.14
		c3.97,0.05,6.04-3.65,11.28-4.19c0.64,0,1.29,0,1.93,0.16c-1.61-1.18-3.33-2.26-4.91-3.44c-3.76,0.54-6.74,2.15-11.3,1.72
		c-6.93-0.54-9.24-5.15-12.43-5.64c1.48-1.72,6.1-2.9,11.63-3.17c1.21-0.05,2.58,0.16,4.03,0.7c-2.6-2.04-5.07-4.24-7.49-6.5
		c-3.19,0.7-5.15,2.95-9.29,2.31c-6.69-1.13-8.46-5.64-11.39-6.45c1.45-1.45,6.15-3.06,11.44-2.74c0.81,0,1.69,0.21,2.6,0.43
		c-1.26-1.13-2.39-2.31-3.68-3.71c-4-0.43-7.52,1.07-11.92-0.32c-6.42-1.93-6.79-6.71-9.72-7.89c1.72-1.29,6.31-1.34,11.57-0.43
		c1.21,0.21,2.52,0.81,3.71,1.45c-2.01-2.25-3.95-4.62-5.91-7.09c-4.16-0.91-8.19,1.34-12.73-0.81c-6.55-3.28-7.01-10.04-9.91-11.81
		c2.04-1.02,8.08-0.7,13.53,1.07c0.43,0.27,0.91,0.43,1.4,0.7c-1.23-1.72-2.39-3.38-3.44-5.16c-4.05-1.34-7.28,0.91-11.73-1.99
		c-6.5-4.03-6.36-9.72-9.1-11.98c1.99,0.38,7.06-0.91,12.57,1.66c0.62,0.27,1.24,0.64,1.85,1.02l-0.86-1.61
		c-1.16-1.56-2.5-3.44-3.65-5.37c-3.25-1.45-6.39-0.27-9.75-3.17c-5.08-4.51-4.75-9.13-6.79-11.49c1.99-0.43,7.06-0.48,11.44,2.47
		c0.32,0.27,0.59,0.48,0.97,0.75c-0.48-1.13-0.97-2.36-1.4-3.6c-2.93-0.91-5.77-0.11-8.91-2.85c-5.02-4.46-4.59-6.12-6.63-8.43
		c1.5-0.32,4.43-1.99,7.73-1.56c-1.64-0.86-3.09-1.83-4.54-3.44c-3.84-3.97-3.09-8.91-3.68-11.12c1.91-0.27,4.59-0.05,8.46,2.36
		c-0.24-1.34-0.54-2.58-0.86-3.81c-2.31-1.07-5.45-0.59-7.6-3.28c-2.42-3.01-3.14-4.56-5.85-5.69c1.15-1.72,4.94-3.76,9.37-0.81
		c1.07,0.75,2.07,1.93,2.95,3.33c-0.4-2.52-0.75-4.99-1.07-7.52c-1.4-1.07-3.79,0.91-6.52-1.5c-5.1-4.51-4.32-5.48-6.44-7.79
		c1.15-0.16,3.36-1.5,5.88-1.99c-3.11-3.38-2.63-8.91-2.2-10.85c1.99-0.38,2.87,1.34,7.22,4.35c0.35,0.11,0.67,0.38,0.91,0.75
		c0-1.02,0-2.04,0.08-3.06c-1.26-2.85-4.38-4.99-6.12-8.43c-3.01-5.37-0.7-10.42-0.27-12.35c2.07-0.48,4.59,1.5,7.95,5.69
		c0.11,0.27,0.32,0.59,0.43,0.91c0.32-1.72,0.7-3.33,1.07-5.05c-2.26-1.93-5.1-2.36-6.9-5.96c-2.9-6.12-0.16-10.15-1.18-13.1
		c0.81,0.21,1.93,0.8,3.01,1.88c-0.16-4.62,2.12-7.46,3.14-9.77c1.91,0.7,4.24,4.4,6.26,9.13c0.38-2.42,0.24-3.81,0.54-5.53
		c-1.56-3.76-5.5-5.21-6.26-9.93c-1.15-6.61,3.28-10.53,3.14-13.7c1.88,1.02,5.07,5.21,6.63,10.2c0.16,0.43,0.21,0.81,0.27,1.34
		c0.43-1.02,0.97-2.31,1.56-3.7c-1.13-3.22-3.89-4.83-3.81-9.08c0.05-6.82,3.33-9.34,3.73-12.46c1.66,1.34,3.97,5.75,4.59,11.01
		l0.3-0.59c0.64-1.77,1.29-3.33,2.15-5.16c-0.97-2.85-3.79-4.24-3.79-8.11c0.08-6.77,2.34-9.08,2.77-12.19
		c1.61,1.29,5.67,4.67,6.36,9.94l0.05,0.48c0.43-0.75,0.91-1.56,1.4-2.26c0.75-1.66,1.77-3.49,2.87-5.1
		c-1.23-3.06-3.95-4.57-3.68-8.75c0.21-4.89,1.56-6.07,3.14-8.54c1.64,1.23,4.51,3.92,5.18,9.24c0.16,0.75,0.11,1.56-0.11,2.52
		c0.78-1.13,1.56-1.99,2.31-3.01c-0.11-3.22-0.75-5.32-0.38-8.59c0.7-6.66,2.85-9.88,6.01-11.71c1.21,1.24,2.74,5.05,3.01,9.56
		l0.54-0.54l1.77-2.15c-0.11-2.74-0.62-4.67-0.27-7.52c0.7-6.66,2.9-9.88,6.04-11.76c1.18,1.29,3.84,4.99,2.42,9.83
		c0.62-0.54,1.21-1.07,1.91-1.5c0.81-0.91,1.67-1.72,2.52-2.58c-0.08,0-0.21,0.16-0.21,0.16l0.21-0.38c0-2.74-2.15-3.38-1.88-6.12
		c0.81-6.71,4.06-10.79,7.17-12.51c1.53,1.34,4.54,7.03,1.37,12.35c0.48-0.43,1.02-0.7,1.61-1.02c1.02-0.81,2.04-1.72,3.11-2.63
		c0.16-2.2-1.23-3.65-0.51-6.07c1.88-6.34,5.32-8.91,8.73-10.1c0.97,1.4,2.63,5.37,0.86,8.97h0.27c0.97-0.7,1.96-1.45,2.98-2.2
		c0.13-1.77-0.24-3.38,0.38-5.91c1.02-4.46,3.01-5.85,6.36-7.14c0.97,1.29,1.72,4.19,0.64,7.25c0.43-0.11,0.91-0.32,1.45-0.32
		l2.42-1.56c0.38-1.77-1.02-2.79,0-5.58c1.15-3.11,3.09-4.83,6.5-6.12c0.75,1.18,1.5,3.49,0.38,6.18c1.83-1.99,3.49-4.08,5.67-5.69
		c2.63-1.88,8.83-1.34,8.89-1.18c0,0.16-3.97,5.1-6.79,5.8c-2.28,0.48-5.99,2.15-8.4,3.17c4.67-2.09,7.01,0.11,8.19,1.72
		c-3.17,2.63-6.9,1.99-8.78,1.99c-2.34,0.05-1.18-0.86-3.54-0.27c-0.62,0.54-1.05,1.18-1.58,1.83c3.17,0.48,5.8,1.45,5.8,1.45
		s-1.53,3.49-5.4,4.13c-3.76,0.81-3.87-0.54-5.99-0.38c-1.24,0.05-2.39,0.38-3.11,0.64l-0.7,0.54c-0.59,0.48-1.13,0.97-1.61,1.4
		c3.76,0,7.17,0.75,7.17,0.75s-1.32,4.08-7.68,4.99c-6.47,0.81-3.92,0.22-6.31,0.05c-0.54,0-1.13,0-1.58,0.16l-1.37,0.97l-1.56,1.61
		c5-0.59,6.79,2.26,6.79,2.26s-3.3,4.03-6.93,5.69c-3.17,1.34-6.61,0-8.78-0.54c-0.64,0.54-1.23,1.23-1.96,1.83
		c3.95-0.64,7.14,1.66,7.14,1.66s-2.04,4.19-4.83,5.8c-2.77,1.66-4.78,0.38-9,0.38c-0.3,0-0.62,0-0.97,0.05
		c-0.91,1.07-1.77,2.09-2.77,3.06l-0.51,0.75c4.14-1.18,9.26,0.75,9.26,0.75s-1.88,3.6-5.5,5.21c-3.54,1.5-4.22-0.81-9.42,0.59
		l-0.67,0.65c-0.13,1.02-0.62,2.04-1.16,2.9c2.93-0.27,6.55,0.7,6.55,0.7s-0.94,4.94-4.48,6.77c-1.83,1.02-7.25,1.07-10.02,1.13
		l-0.27,0.11l-0.97,1.18c4-0.48,8.19,3.01,8.19,3.01s-4.03,5.26-8,7.52c-3.97,2.31-7.12,0-7.12,0l-0.64,0.64
		c-0.62,1.07-1.29,2.2-1.88,3.44c2.85-1.02,8.48,1.45,8.48,1.45s0.24,4.83-5.96,6.66c-3.01,0.81-5.37-0.75-5.37-0.75l-0.91,0.48
		c-0.56,1.45-1.1,3.01-1.64,4.4c-0.22,0.7-0.65,1.24-0.91,1.88c0.11-0.21,0.27-0.38,0.38-0.48c3.89-3.17,9.83-1.82,11.84-1.72
		c-2.55,1.45-1.58,6.07-6.39,8.81c-3.41,1.83-7.3,0.75-10.15,2.58c-0.97,2.52-1.77,5.1-2.55,7.68c3.36-3.49,8.81-3.01,10.77-4.24
		c-1.1,2.79-0.54,8.59-4.97,11.98c-3.03,2.42-6.77,2.47-8.81,4.4c-0.27,1.88-0.7,3.87-1.13,5.8l-0.27,1.56
		c3.01-3.01,7.89-3.38,9.56-3.76c-2.01,2.15,0.43,7.09-3.41,11.06c-2.9,2.95-6.74,3.87-9.18,6.28c-0.99,4.78-1.85,9.61-2.34,14.45
		c0.3-3.22,0.99-8.49,2.82-11.38c2.66-4.13,8.65-4.73,10.58-5.21c0,2.95,0.43,7.79-3.33,11.81c-1.07,1.07-2.36,1.93-3.57,2.63
		c0.27,2.79,1.69,6.66,0.16,10.63c-1.58,4.08-5.13,5.1-6.31,8.27l0.16,1.88c1.45-2.74,8.7-6.55,10.31-7.73
		c0,2.52,1.61,6.55-0.27,11.76c-1.45,3.6-7.01,3.12-8.73,6.55c0.51,3.11,1.05,6.34,1.72,9.29c0.05-0.38,0.05-0.8,0.19-1.18
		c0.89-4.78,3.87-9.13,5.42-10.36c0.91,2.04,3.38,8.27,2.36,13c-0.81,3.6-3.92,4.83-5.02,7.52c0.89,3.06,1.37,6.39,1.45,7.89
		l0.48,1.18c0-0.54,0-1.02,0.13-1.56c0.86-5,5.18-8.86,6.74-10.15c1.5,2.15,4.03,7.41,2.04,12.62c-1.4,3.54-4.56,4.62-6.15,7.14
		c0.54,1.34,1.02,2.63,1.58,4.03c0.67-1.93,1.66-3.54,1.91-4.3c0.16,0.64,0.67,1.61,1.26,2.52c1.96-2.79,5.02-4.57,6.04-5.69
		c-0.59,3.49,2.09,6.55,0.86,12.83c-0.27,1.24-0.48,2.26-0.64,3.38c0.27,0.97,0.59,1.77,0.75,2.69c0.43,3.12-1.23,4.24-2.09,5.8
		c1.4,2.63,2.79,5.16,4.27,7.52c-0.43-5.37,3.97-11.6,5.32-13.32c0.56,3.12,5.4,7.95,4.78,14.02c-0.46,4.46-3.36,6.6-3.14,10.2
		c1.18,1.77,2.31,3.44,3.54,5.05c-1.23-5.05,3.03-11.12,3.95-12.94c0.24,3.06,4.81,6.44,5.18,11.98c0.11,4.14-0.48,8.81,0.05,12.67
		l0.99,1.13c-1.48-4.51,1.48-9.34,2.15-11.06c0.67,2.85,5.99,4.56,7.09,10.1c0.78,4.3-2.28,6.61-0.51,10.53
		c1.4,1.5,2.85,2.85,4.24,4.19c-2.04-4.67,0.56-10.1,1.15-12.08c0.91,3.01,5.56,4.03,7.11,9.61c1.24,4.4,0.64,8,2.04,11.55
		c1.5,1.18,2.98,2.36,4.43,3.44c-0.59-0.59-1.13-1.18-1.45-1.93c-2.39-4.35,0.11-9.93,0.59-11.87c0.91,2.85,6.93,4.4,8.56,9.72
		c1.4,4.3,0.81,7.84,2.5,11.17c1.53,1.07,3.06,1.99,4.7,2.95c-0.35-0.27-0.48-0.43-0.59-0.75c-3.04-3.92-1.34-9.72-1.16-11.81
		c1.34,2.74,5.93,2.95,8.38,7.95c1.83,3.87,1.83,7.25,3.65,10.37l1.77,0.8c14.15,4.94,23.98,5.16,40.54,6.98
		c8.78-0.43,17.75,7.68,17.75,7.68s0.13,1.34-5.18,0c-1.48-3.11-12.14-5.21-14.18-4.51c-16.24-1.77-26.66-3.76-37.03-7.2
		c-3.01,1.4-4.27,4.19-8.51,4.67c-6.77,0.75-9.61-3.33-12.75-3.33c1.1-1.77,5.29-3.65,10.5-4.83c0.94-0.27,1.91-0.27,2.9-0.27
		C432.6,524.61,430.53,523.43,428.54,522.24z"/>
	<path class="st10" d="M507.22,542.44c0,0-0.21-0.54-0.72-1.34c-7.71-13.1-26.8-8.05-39.5-12.14c-16.22-5.26-26.39-11.71-39.9-21.16
		c-8.91-6.17-15.6-14.28-21.21-23.52l-5.75-8.86l9.29,6.71c0,0,1.45,2.42,3.79,5.64c9.53,13.43,15.33,15.9,28.57,24.81
		c9,6.07,23.23,13,34.56,14.02c12.49,1.34,26.29-0.16,33.78,12.35c0.64,1.18,1.4,3.06,1.4,3.06L507.22,542.44z"/>
	<path class="st10" d="M479.48,538.73c-7.79,3.71-31.23,5.96-41,4.99c-16.03-1.5-25.43-14.18-35.74-24.76
		c-5.61-5.75-13.51-8.91-20.86-11.6l-4.89-6.39l6.36,2.42c0,0,2.44,0.97,5.75,2.42c12.4,5.32,13.77,6.98,22.23,16.38
		c7.12,7.89,16.38,16.32,27.5,17.29c8.43,0.91,31.15-0.91,38.8-4.51c6.53-2.36,12.7,0.54,12.7,0.54L479.48,538.73z"/>
	<path class="st10" d="M608.39,522.24c3.6,0.75,5.88,2.9,10.44,2.74c6.74-0.21,8.16-3.76,11.28-4.14
		c-3.92,0.05-5.99-3.65-11.28-4.19c-0.59,0-1.21,0-1.88,0.16c1.64-1.18,3.3-2.26,4.86-3.44c3.76,0.54,6.82,2.15,11.39,1.72
		c6.95-0.54,9.18-5.15,12.35-5.64c-1.39-1.72-6.01-2.9-11.6-3.17c-1.23-0.05-2.52,0.16-3.97,0.7c2.52-2.04,5.05-4.24,7.49-6.5
		c3.12,0.7,5.08,2.95,9.29,2.31c6.66-1.13,8.46-5.64,11.36-6.45c-1.45-1.45-6.18-3.06-11.44-2.74c-0.86,0-1.77,0.21-2.52,0.43
		c1.13-1.13,2.31-2.31,3.52-3.71c4.05-0.43,7.54,1.07,11.98-0.32c6.47-1.93,6.79-6.71,9.72-7.89c-1.75-1.29-6.34-1.34-11.55-0.43
		c-1.26,0.21-2.55,0.81-3.79,1.45c2.09-2.25,4.03-4.62,5.93-7.09c4.21-0.91,8.19,1.34,12.73-0.81c6.58-3.28,7.06-10.04,9.93-11.81
		c-2.01-1.02-8.11-0.7-13.51,1.07c-0.48,0.27-0.91,0.43-1.4,0.7c1.23-1.72,2.26-3.38,3.46-5.16c3.97-1.34,7.22,0.91,11.71-1.99
		c6.52-4.03,6.31-9.72,9.1-11.98c-2.09,0.38-7.09-0.91-12.62,1.66c-0.59,0.27-1.24,0.64-1.83,1.02l0.91-1.61
		c1.13-1.56,2.47-3.44,3.57-5.37c3.3-1.45,6.36-0.27,9.8-3.17c5.08-4.51,4.7-9.13,6.82-11.49c-2.07-0.43-7.12-0.48-11.49,2.47
		c-0.35,0.27-0.7,0.48-0.97,0.75c0.48-1.13,0.97-2.36,1.45-3.6c2.9-0.91,5.77-0.11,8.83-2.85c5.02-4.46,4.54-6.12,6.71-8.43
		c-1.53-0.32-4.46-1.99-7.71-1.56c1.53-0.86,3.01-1.83,4.48-3.44c3.73-3.97,3.09-8.91,3.65-11.12c-1.83-0.27-4.54-0.05-8.43,2.36
		c0.29-1.34,0.56-2.58,0.86-3.81c2.26-1.07,5.45-0.59,7.57-3.28c2.39-3.01,3.17-4.56,5.8-5.69c-1.15-1.72-4.83-3.76-9.32-0.81
		c-1.07,0.75-2.09,1.93-2.95,3.33c0.43-2.52,0.73-4.99,1.08-7.52c1.39-1.07,3.81,0.91,6.58-1.5c5-4.51,4.27-5.48,6.36-7.79
		c-1.13-0.16-3.38-1.5-5.93-1.99c3.22-3.38,2.74-8.91,2.25-10.85c-2.04-0.38-2.87,1.34-7.22,4.35c-0.29,0.11-0.64,0.38-0.91,0.75
		c0-1.02,0-2.04-0.05-3.06c1.29-2.85,4.4-4.99,6.15-8.43c3.01-5.37,0.64-10.42,0.27-12.35c-2.04-0.48-4.7,1.5-7.92,5.69
		c-0.16,0.27-0.35,0.59-0.48,0.91c-0.4-1.72-0.72-3.33-1.05-5.05c2.23-1.93,5.07-2.36,6.87-5.96c2.87-6.12,0.13-10.15,1.16-13.1
		c-0.78,0.21-1.88,0.8-3.01,1.88c0.21-4.62-2.15-7.46-3.12-9.77c-1.85,0.7-4.21,4.4-6.28,9.13c-0.35-2.42-0.24-3.81-0.48-5.53
		c1.58-3.76,5.48-5.21,6.23-9.93c1.1-6.61-3.3-10.53-3.14-13.7c-1.83,1.02-5.02,5.21-6.58,10.2c-0.19,0.43-0.27,0.81-0.27,1.34
		c-0.48-1.02-0.97-2.31-1.58-3.7c1.1-3.22,3.84-4.83,3.79-9.08c0-6.82-3.38-9.34-3.73-12.46c-1.58,1.34-3.97,5.75-4.62,11.01
		l-0.24-0.59c-0.64-1.77-1.37-3.33-2.26-5.16c1.07-2.85,3.89-4.24,3.84-8.11c-0.05-6.77-2.31-9.08-2.71-12.19
		c-1.61,1.29-5.69,4.67-6.34,9.94l-0.08,0.48c-0.54-0.75-0.97-1.56-1.45-2.26c-0.75-1.66-1.72-3.49-2.82-5.1
		c1.21-3.06,3.84-4.57,3.68-8.75c-0.27-4.89-1.56-6.07-3.25-8.54c-1.61,1.23-4.51,3.92-5.16,9.24c-0.11,0.75-0.05,1.56,0.13,2.52
		c-0.8-1.13-1.58-1.99-2.28-3.01c0.13-3.22,0.75-5.32,0.43-8.59c-0.83-6.66-2.87-9.88-6.04-11.71c-1.37,1.24-2.77,5.05-2.98,9.56
		l-0.56-0.54l-1.91-2.15c0.22-2.74,0.73-4.67,0.43-7.52c-0.78-6.66-2.93-9.88-6.07-11.76c-1.24,1.29-3.89,4.99-2.55,9.83
		c-0.51-0.54-1.15-1.07-1.77-1.5c-0.86-0.91-1.72-1.72-2.58-2.58c0.16,0,0.27,0.16,0.27,0.16l-0.32-0.38
		c0.05-2.74,2.2-3.38,1.96-6.12c-0.75-6.71-4.05-10.79-7.2-12.51c-1.5,1.34-4.48,7.03-1.34,12.35c-0.48-0.43-1.02-0.7-1.61-1.02
		c-1.05-0.81-2.04-1.72-3.14-2.63c-0.11-2.2,1.29-3.65,0.56-6.07c-1.85-6.34-5.37-8.91-8.7-10.1c-1.1,1.4-2.68,5.37-0.86,8.97h-0.35
		c-0.97-0.7-1.93-1.45-2.9-2.2c-0.27-1.77,0.21-3.38-0.4-5.91c-0.99-4.46-2.98-5.85-6.45-7.14c-0.91,1.29-1.69,4.19-0.54,7.25
		c-0.56-0.11-0.97-0.32-1.53-0.32l-2.42-1.56c-0.38-1.77,1.07-2.79,0-5.58c-1.18-3.11-3.06-4.83-6.36-6.12
		c-0.86,1.18-1.56,3.49-0.51,6.18c-1.83-1.99-3.54-4.08-5.64-5.69c-2.66-1.88-8.81-1.34-8.86-1.18c0,0.16,4,5.1,6.79,5.8
		c2.23,0.48,5.99,2.15,8.38,3.17c-4.75-2.09-6.96,0.11-8.14,1.72c3.17,2.63,6.85,1.99,8.78,1.99c2.23,0.05,1.18-0.86,3.52-0.27
		c0.56,0.54,0.97,1.18,1.56,1.83c-3.2,0.48-5.77,1.45-5.77,1.45s1.56,3.49,5.37,4.13c3.79,0.81,3.92-0.54,6.01-0.38
		c1.18,0.05,2.36,0.38,3.12,0.64l0.67,0.54c0.54,0.48,1.15,0.97,1.66,1.4c-3.79,0-7.28,0.75-7.28,0.75s1.4,4.08,7.71,4.99
		c6.42,0.81,4,0.22,6.31,0.05c0.59,0,1.18,0,1.61,0.16l1.34,0.97l1.59,1.61c-5.02-0.59-6.77,2.26-6.77,2.26s3.25,4.03,6.85,5.69
		c3.25,1.34,6.66,0,8.81-0.54c0.67,0.54,1.29,1.23,2.07,1.83c-4.05-0.64-7.2,1.66-7.2,1.66s2.07,4.19,4.83,5.8
		c2.79,1.66,4.78,0.38,8.99,0.38c0.27,0,0.64,0,0.91,0.05c0.86,1.07,1.77,2.09,2.79,3.06l0.51,0.75c-4.22-1.18-9.29,0.75-9.29,0.75
		s1.88,3.6,5.5,5.21c3.6,1.5,4.13-0.81,9.51,0.59l0.59,0.65c0.16,1.02,0.59,2.04,1.24,2.9c-2.98-0.27-6.63,0.7-6.63,0.7
		s0.97,4.94,4.51,6.77c1.85,1.02,7.2,1.07,10.04,1.13l0.3,0.11l0.91,1.18c-3.95-0.48-8.22,3.01-8.22,3.01s4.05,5.26,7.97,7.52
		c4,2.31,7.17,0,7.17,0l0.62,0.64c0.72,1.07,1.29,2.2,1.91,3.44c-2.82-1.02-8.49,1.45-8.49,1.45s-0.32,4.83,5.96,6.66
		c2.98,0.81,5.37-0.75,5.37-0.75l0.91,0.48c0.54,1.45,1.07,3.01,1.56,4.4c0.38,0.7,0.72,1.24,1.02,1.88
		c-0.11-0.21-0.29-0.38-0.48-0.48c-3.81-3.17-9.77-1.82-11.68-1.72c2.58,1.45,1.48,6.07,6.28,8.81c3.36,1.83,7.3,0.75,10.15,2.58
		c0.99,2.52,1.85,5.1,2.58,7.68c-3.33-3.49-8.73-3.01-10.77-4.24c1.07,2.79,0.56,8.59,5.02,11.98c3.01,2.42,6.74,2.47,8.67,4.4
		c0.38,1.88,0.78,3.87,1.18,5.8l0.32,1.56c-3.01-3.01-7.87-3.38-9.56-3.76c2.01,2.15-0.43,7.09,3.36,11.06
		c2.93,2.95,6.74,3.87,9.24,6.28c1.05,4.78,1.88,9.61,2.34,14.45c-0.29-3.22-1.02-8.49-2.82-11.38c-2.63-4.13-8.7-4.73-10.58-5.21
		c0,2.95-0.43,7.79,3.3,11.81c1.1,1.07,2.34,1.93,3.54,2.63c-0.32,2.79-1.66,6.66-0.21,10.63c1.64,4.08,5.18,5.1,6.42,8.27
		l-0.16,1.88c-1.56-2.74-8.73-6.55-10.31-7.73c0,2.52-1.67,6.55,0.29,11.76c1.45,3.6,6.98,3.12,8.67,6.55
		c-0.48,3.11-1.02,6.34-1.69,9.29c0-0.38-0.08-0.8-0.19-1.18c-0.91-4.78-3.89-9.13-5.45-10.36c-0.91,2.04-3.36,8.27-2.39,13
		c0.86,3.6,3.95,4.83,5.08,7.52c-0.86,3.06-1.4,6.39-1.5,7.89l-0.43,1.18c0-0.54-0.05-1.02-0.16-1.56c-0.91-5-5.1-8.86-6.77-10.15
		c-1.53,2.15-4.03,7.41-2.04,12.62c1.45,3.54,4.59,4.62,6.15,7.14c-0.48,1.34-0.99,2.63-1.56,4.03c-0.64-1.93-1.61-3.54-1.93-4.3
		c-0.13,0.64-0.62,1.61-1.24,2.52c-2.01-2.79-5.02-4.57-6.04-5.69c0.59,3.49-2.07,6.55-0.8,12.83c0.24,1.24,0.48,2.26,0.62,3.38
		c-0.32,0.97-0.56,1.77-0.72,2.69c-0.51,3.12,1.21,4.24,2.01,5.8c-1.34,2.63-2.77,5.16-4.3,7.52c0.48-5.37-3.95-11.6-5.24-13.32
		c-0.64,3.12-5.53,7.95-4.81,14.02c0.51,4.46,3.33,6.6,3.19,10.2c-1.21,1.77-2.34,3.44-3.62,5.05c1.29-5.05-2.98-11.12-4-12.94
		c-0.08,3.06-4.67,6.44-5.07,11.98c-0.19,4.14,0.48,8.81-0.03,12.67l-1.05,1.13c1.48-4.51-1.45-9.34-2.2-11.06
		c-0.54,2.85-5.93,4.56-7.06,10.1c-0.81,4.3,2.31,6.61,0.48,10.53c-1.37,1.5-2.77,2.85-4.22,4.19c2.12-4.67-0.56-10.1-1.13-12.08
		c-0.88,3.01-5.56,4.03-7.14,9.61c-1.24,4.4-0.62,8-2.04,11.55c-1.45,1.18-2.9,2.36-4.43,3.44c0.59-0.59,1.16-1.18,1.45-1.93
		c2.34-4.35-0.05-9.93-0.54-11.87c-0.97,2.85-6.93,4.4-8.57,9.72c-1.48,4.3-0.86,7.84-2.5,11.17c-1.56,1.07-3.01,1.99-4.67,2.95
		c0.32-0.27,0.38-0.43,0.59-0.75c3.01-3.92,1.34-9.72,1.13-11.81c-1.4,2.74-5.93,2.95-8.38,7.95c-1.83,3.87-1.88,7.25-3.71,10.37
		l-1.75,0.8c-14.18,4.94-23.92,5.16-40.54,6.98c-8.81-0.43-17.75,7.68-17.75,7.68s-0.08,1.34,5.21,0
		c1.53-3.11,12.24-5.21,14.12-4.51c16.27-1.77,26.61-3.76,37.03-7.2c3.04,1.4,4.27,4.19,8.59,4.67c6.69,0.75,9.61-3.33,12.67-3.33
		c-1.1-1.77-5.29-3.65-10.47-4.83c-0.91-0.27-1.83-0.27-2.87-0.27C604.28,524.61,606.33,523.43,608.39,522.24z"/>
	<path class="st10" d="M529.72,542.44c0,0,0.21-0.54,0.7-1.34c7.71-13.1,26.77-8.05,39.44-12.14c16.27-5.26,26.37-11.71,39.93-21.16
		c8.83-6.17,15.55-14.28,21.24-23.52l5.75-8.86l-9.34,6.71c0,0-1.48,2.42-3.73,5.64c-9.61,13.43-15.31,15.9-28.57,24.81
		c-8.99,6.07-23.33,13-34.61,14.02c-12.49,1.34-26.26-0.16-33.72,12.35c-0.72,1.18-1.4,3.06-1.4,3.06L529.72,542.44z"/>
	<path class="st10" d="M557.43,538.73c7.73,3.71,31.2,5.96,40.97,4.99c16.08-1.5,25.51-14.18,35.77-24.76
		c5.61-5.75,13.51-8.91,20.84-11.6l4.83-6.39l-6.28,2.42c0,0-2.47,0.97-5.83,2.42c-12.38,5.32-13.64,6.98-22.18,16.38
		c-7.2,7.89-16.41,16.32-27.58,17.29c-8.3,0.91-31.04-0.91-38.83-4.51c-6.44-2.36-12.67,0.54-12.67,0.54L557.43,538.73z"/>
	<path class="st9" d="M419.42,366.99c0-55.2,44.68-99.94,99.89-99.94c55.21,0,99.91,44.73,99.91,99.94
		c0,55.15-44.71,99.94-99.91,99.94C464.09,466.93,419.42,422.14,419.42,366.99z M375.92,366.99c0-79.21,64.23-143.44,143.39-143.44
		c79.18,0,143.41,64.23,143.41,143.44c0,79.16-64.23,143.44-143.41,143.44C440.14,510.43,375.92,446.15,375.92,366.99z"/>
	<path class="st10" d="M461.3,145.41c0-31.52,25.67-57.25,57.3-57.25c31.63,0,57.19,25.72,57.19,57.25
		c0,10.79-3.01,20.84-8.22,29.43c86.03,21.64,149.75,99.4,149.75,192.15c0,93.01-63.99,170.94-150.29,192.36
		c-0.64-1.34-1.45-2.47-2.44-3.49c85.39-20.46,148.78-97.36,148.78-188.87c0-91.35-63.07-168.03-148.06-188.71
		c-10.37,14.77-27.47,24.38-46.72,24.38c-19.28,0-36.2-9.4-46.61-24c-84.29,21.16-146.85,97.47-146.85,188.33
		c0,91.03,62.81,167.55,147.41,188.39c-0.94,1.18-1.83,2.26-2.52,3.49c-85.58-21.86-148.76-99.51-148.76-191.88
		c0-92.26,63.13-169.7,148.51-191.72C464.42,166.57,461.3,156.37,461.3,145.41z M562.96,177.8c0.75-1.07,1.61-2.26,2.26-3.44
		c5.26-8.49,8.24-18.37,8.24-28.95c0-30.34-24.6-54.94-54.86-54.94c-30.4,0-54.99,24.6-54.99,54.94c0,10.79,3.06,20.84,8.43,29.21
		c0.75,1.23,1.48,2.31,2.31,3.49c10.04,13.48,26.1,22.23,44.25,22.23C536.78,200.35,552.97,191.49,562.96,177.8z"/>
	<path class="st11" d="M367.69,366.99c0-83.63,68.01-151.67,151.61-151.67c83.6,0,151.61,68.04,151.61,151.67
		c0,83.63-68.01,151.67-151.61,151.67C435.7,518.66,367.69,450.62,367.69,366.99z M519.3,529.49c85.74,0,162.44-76.72,162.44-162.5
		c0-85.77-76.7-162.5-162.44-162.5c-85.74,0-162.44,76.72-162.44,162.5C356.86,452.76,433.56,529.49,519.3,529.49z"/>
	<path class="st6" d="M423.09,366.99c0-51.47,44.66-96.3,96.22-96.3c51.45,0,96.27,42.12,96.27,96.3c0,55.1-44.82,96.24-96.27,96.24
		C467.75,463.23,423.09,420.68,423.09,366.99z M428.66,366.99c0-50.04,40.63-90.56,90.64-90.56c50.01,0,90.61,40.52,90.61,90.56
		c0,50.04-40.6,90.61-90.61,90.61C469.29,457.6,428.66,417.03,428.66,366.99z"/>
	<path class="st8" d="M571.2,236.66l3.84,1.66c0.99,0.43,1.56,1.56,1.07,2.63l-15.06,32.49c-0.38,1.07-1.66,1.56-2.63,1.13
		l-1.15-0.48c-1.1-0.38-1.53-1.61-1.16-2.74l12.41-33.51C568.95,236.71,570.1,236.23,571.2,236.66z M606.27,270.92l-18.12,19.81
		c-0.75,0.81-1.93,0.97-2.53,0.43l-0.64-0.75c-1.37-1.02-0.51-1.83,0.24-2.63l14.04-16.86c4.67-7.09-3.52-7.79-8.86-11.22
		c-4.08-2.52-8.4-10.2-13.08-4.99l-11.46,21.37c-0.54,1.02-1.56,1.5-2.26,1.02l-0.86-0.43c-0.7-0.38-0.91-1.56-0.46-2.58
		l12.22-24.54c6.5-12.57,15.2-3.76,22.5,1.29c7.01,4.83,18.98,8.75,9.42,19.87C606.33,270.81,606.33,270.92,606.27,270.92z
		 M582.88,287.99c-0.78,0.97-3.84-1.34-3.36-2.09c-0.05,0.05,9.16-12.89,9.16-12.89c0.38-0.54,0.51-1.18,0.21-1.4
		c-0.27-0.27-0.81,0.11-1.24,0.7l-9.05,12.67c-0.56,0.7-3.79-1.18-3.2-1.93l8.57-13.05c0.46-0.54,0.48-1.07,0.19-1.4
		c-0.3-0.16-0.83,0.16-1.26,0.64l-8.59,13.1c-0.35,0.59-3.65-1.13-3.11-2.04l7.95-13.43c0.32-0.64,0.32-1.23,0.03-1.45
		c-0.32-0.16-0.81,0.21-1.18,0.81l-7.95,13.48c-0.43,0.86-3.65-0.86-3.22-1.77l9.29-17.08c3.73-6.87,8.24,1.34,11.33,3.38
		c3.46,2.26,13.16,2.47,6.39,10.53L582.88,287.99z M617.07,266.51l2.95,2.79c0.83,0.86,0.83,2.2,0,3.01l-26.31,24.27
		c-0.73,0.81-2.12,0.81-2.85,0l-0.94-0.91c-0.86-0.81-0.86-2.04,0-2.95l24.22-26.21C615.02,265.65,616.31,265.65,617.07,266.51z
		 M636.4,311.62l-24.33,11.12c-1.05,0.54-2.01,0.32-2.44-0.48l-0.32-0.91c-0.86-1.4,0.21-1.88,1.18-2.2l19.39-10.47
		c7.11-4.62-0.19-8.32-3.84-13.53c-2.82-3.97-3.81-12.67-10.15-9.72l-18.74,15.36c-0.86,0.75-2.01,0.86-2.58,0.16l-0.48-0.59
		c-0.59-0.8-0.32-1.93,0.48-2.69l20.57-18.1c10.9-9.02,15.65,2.42,20.38,9.83c4.65,7.2,14.26,15.36,1.21,21.96
		C636.48,311.46,636.48,311.52,636.4,311.62z M608.2,318.39c-1.05,0.59-2.98-2.9-2.25-3.28l13.51-8.38
		c0.54-0.43,0.86-0.97,0.64-1.18c-0.16-0.38-0.81-0.32-1.48,0.05l-13.21,8.32c-0.75,0.38-2.95-2.58-2.09-3.01l12.89-8.75
		c0.56-0.38,0.86-0.86,0.64-1.24c-0.21-0.32-0.81-0.27-1.34,0.22l-12.92,8.64c-0.67,0.38-3.01-2.31-2.2-3.06l12.54-9.34
		c0.54-0.48,0.81-0.97,0.59-1.29c-0.24-0.21-0.83-0.16-1.37,0.21l-12.51,9.45c-0.81,0.7-3.06-2.26-2.36-2.85l15.14-12.14
		c6.12-4.99,7.12,4.35,9.18,7.41c2.28,3.33,11.2,7.36,1.77,12.14L608.2,318.39z M648.11,311.52l1.67,3.87
		c0.43,1.02-0.11,2.2-1.18,2.69l-33.56,12.35c-1.07,0.43-2.28-0.05-2.77-1.13l-0.43-1.13c-0.43-1.02,0.13-2.2,1.15-2.69l32.41-15.14
		C646.47,309.85,647.73,310.44,648.11,311.52z M648.7,360.6l-26.72,1.02c-1.18,0.05-2.09-0.54-2.09-1.4v-0.91
		c-0.16-1.66,0.91-1.66,2.04-1.66l21.8-2.2c8.3-1.56,3.19-7.89,1.66-14.02c-1.02-4.67,1.37-13.21-5.75-12.83l-23.12,7.09
		c-1.07,0.32-2.15-0.05-2.39-0.86l-0.24-0.97c-0.24-0.8,0.43-1.72,1.56-2.09l25.91-8.86c13.59-4.24,13.48,8.11,15.04,16.86
		c1.56,8.43,7.25,19.66-7.38,20.84C648.91,360.6,648.75,360.6,648.7,360.6z M620.1,356.2c-1.26,0.05-1.75-3.87-0.81-3.97
		c-0.19,0,15.55-2.52,15.55-2.52c0.64-0.21,1.15-0.59,1.1-0.91c-0.03-0.32-0.62-0.48-1.29-0.43l-15.44,2.63
		c-0.86,0.05-1.77-3.54-0.86-3.65l15.33-3.17c0.64-0.16,1.15-0.54,1.02-0.91c0-0.32-0.62-0.54-1.24-0.32l-15.36,3.12
		c-0.78,0.11-1.83-3.33-0.89-3.6l15.17-3.92c0.7-0.16,1.13-0.64,1.07-0.91c0-0.43-0.75-0.59-1.4-0.32l-15.12,3.92
		c-1.02,0.32-2.01-3.33-1.07-3.54l18.69-5.53c7.49-2.15,4.83,6.77,5.56,10.42c0.86,4.03,7.6,11.06-2.98,11.92L620.1,356.2z
		 M659.6,365v4.19c0,1.13-0.97,2.04-2.12,2.04l-35.77-1.34c-1.18,0-2.04-0.91-2.04-2.15v-1.23c0-1.13,0.86-2.15,2.04-2.15l35.77-1.4
		C658.63,362.96,659.6,363.93,659.6,365z M641.37,410.54l-25.16-9.18c-1.13-0.32-1.72-1.29-1.4-2.09l0.32-0.86
		c0.48-1.72,1.5-1.13,2.55-0.8l20.97,6.39c8.35,1.66,5.96-6.07,6.96-12.35c0.86-4.83,6.34-11.65-0.38-14.07l-24.11-2.31
		c-1.13-0.11-1.96-0.91-1.91-1.72l0.19-0.91c0.05-0.86,1.02-1.56,2.26-1.4l27.31,1.77c14.07,1.29,9.32,12.67,7.44,21.27
		c-1.72,8.48-0.86,20.89-14.71,16.38C641.47,410.65,641.37,410.54,641.37,410.54z M616.58,395.51c-1.24-0.38-0.16-4.19,0.75-3.92
		c-0.19,0,15.39,3.54,15.39,3.54c0.75,0.21,1.37,0,1.37-0.32c0-0.27-0.4-0.75-1.1-0.97l-15.22-3.49c-0.86-0.27-0.32-3.87,0.59-3.71
		l15.33,3.01c0.64,0.11,1.26,0,1.34-0.38c0.05-0.32-0.43-0.75-1.18-0.86l-15.25-2.95c-0.59-0.16-0.46-3.76,0.62-3.6l15.49,2.09
		c0.73,0.16,1.24-0.16,1.29-0.54c0.11-0.27-0.43-0.54-1.05-0.7l-15.49-2.26c-1.1,0-0.62-3.76,0.32-3.65l19.36,2.09
		c7.79,0.81,1.91,8.06,1.18,11.65c-0.78,4.08,2.76,13.26-7.33,9.99L616.58,395.51z M649.56,418.92l-1.53,3.76
		c-0.35,1.07-1.56,1.72-2.68,1.13l-32.41-15.04c-1.16-0.48-1.64-1.67-1.21-2.63l0.48-1.18c0.48-1.08,1.59-1.56,2.74-1.13
		l33.59,12.35C649.56,416.67,650.09,417.85,649.56,418.92z M615.35,453.99l-19.63-18.26c-0.91-0.7-1.16-1.67-0.54-2.47l0.62-0.59
		c1.1-1.24,1.85-0.54,2.68,0.21l16.97,14.02c7.06,4.78,7.76-3.44,11.12-8.75c2.58-4.08,10.26-8.43,5.07-13.21l-21.35-11.38
		c-1.05-0.54-1.58-1.56-1.16-2.31l0.48-0.75c0.43-0.81,1.5-0.97,2.58-0.48l24.62,12.14c12.46,6.55,3.73,15.25-1.32,22.5
		c-4.78,7.09-8.67,19.01-19.9,9.45C615.56,454.04,615.35,453.99,615.35,453.99z M598.24,430.52c-0.97-0.64,1.4-3.87,2.25-3.28
		c-0.16-0.11,12.86,9.13,12.86,9.13c0.48,0.43,1.13,0.48,1.4,0.21c0.19-0.27-0.05-0.86-0.67-1.24l-12.78-9.08
		c-0.7-0.48,1.24-3.7,2.01-3.11l13,8.54c0.54,0.43,1.13,0.43,1.37,0.16c0.19-0.32-0.05-0.86-0.64-1.29l-13.02-8.48
		c-0.59-0.48,1.07-3.76,1.93-3.17l13.51,7.84c0.56,0.38,1.18,0.48,1.4,0.16c0.21-0.38-0.16-0.81-0.75-1.13l-13.4-8
		c-1.02-0.54,0.78-3.71,1.69-3.28l17.08,9.29c6.82,3.71-1.34,8.27-3.38,11.33c-2.31,3.49-2.55,13.21-10.63,6.39L598.24,430.52z
		 M619.89,464.78l-2.98,2.9c-0.75,0.8-2.1,0.8-2.96,0l-24.27-26.21c-0.72-0.86-0.72-2.2,0-2.95l0.91-0.86
		c0.86-0.86,2.15-0.86,2.95,0l26.34,24.22C620.69,462.74,620.69,464.03,619.89,464.78z M574.77,484.22l-11.22-24.43
		c-0.48-0.97-0.3-2.15,0.48-2.47l0.86-0.32c1.56-0.91,1.83,0.16,2.34,1.18l10.34,19.39c4.7,7.14,8.54-0.21,13.72-3.81
		c3.84-2.85,12.65-3.87,9.59-10.15l-15.36-18.8c-0.78-0.86-0.8-1.99-0.19-2.52l0.78-0.59c0.75-0.48,1.83-0.22,2.58,0.59l18.07,20.62
		c9.05,10.85-2.39,15.63-9.75,20.25c-7.3,4.78-15.39,14.29-22.02,1.29C574.83,484.28,574.83,484.22,574.77,484.22z M567.93,455.92
		c-0.62-1.07,2.85-3.06,3.28-2.26c0-0.11,8.38,13.43,8.38,13.43c0.38,0.59,0.99,0.86,1.24,0.64c0.32-0.11,0.19-0.7-0.11-1.34
		l-8.27-13.16c-0.43-0.91,2.44-3.01,2.98-2.2l8.75,12.83c0.29,0.59,0.97,0.91,1.15,0.64c0.32-0.22,0.29-0.7-0.11-1.34l-8.73-12.94
		c-0.38-0.54,2.36-2.9,2.98-2.09l9.48,12.51c0.38,0.54,0.97,0.75,1.29,0.54c0.24-0.16,0.16-0.75-0.24-1.4l-9.42-12.46
		c-0.67-0.86,2.17-3.06,2.76-2.36l12.27,15.2c4.99,6.07-4.32,7.09-7.41,9.13c-3.46,2.31-7.38,11.28-12.24,1.83L567.93,455.92z
		 M574.83,495.82l-3.87,1.61c-1.1,0.48-2.31,0-2.79-1.07l-12.3-33.62c-0.38-1.18,0.11-2.31,1.13-2.74l1.13-0.48
		c1.02-0.43,2.31,0.11,2.79,1.13l15.04,32.49C576.33,494.21,575.85,495.39,574.83,495.82z M525.72,496.36l-1.07-26.74
		c-0.05-1.13,0.56-2.09,1.42-2.09h0.89c1.8-0.16,1.75,0.97,1.75,2.09l2.09,21.8c1.67,8.38,7.92,3.11,14.07,1.72
		c4.64-1.07,13.24,1.34,12.83-5.75l-7.01-23.15c-0.35-1.07,0-2.1,0.83-2.36l0.97-0.32c0.8-0.16,1.72,0.48,2.09,1.56l8.86,25.94
		c4.14,13.53-8.19,13.53-16.83,15.09c-8.49,1.5-19.66,7.14-20.73-7.36C525.83,496.63,525.72,496.57,525.72,496.36z M530.2,467.74
		c-0.11-1.18,3.76-1.72,3.89-0.7c-0.05-0.27,2.63,15.52,2.63,15.52c0.11,0.59,0.43,1.07,0.86,1.07c0.32-0.05,0.54-0.64,0.4-1.34
		l-2.55-15.36c-0.13-0.91,3.41-1.77,3.6-0.86l3.09,15.25c0.11,0.7,0.54,1.18,0.86,1.18c0.46-0.11,0.59-0.75,0.46-1.45l-3.14-15.3
		c-0.16-0.64,3.33-1.77,3.62-0.81l3.92,15.14c0.16,0.7,0.59,1.24,0.86,1.13c0.43-0.16,0.54-0.8,0.43-1.34l-3.97-15.25
		c-0.35-0.97,3.22-1.99,3.49-1.02l5.56,18.58c2.15,7.52-6.79,5-10.47,5.64c-3.92,0.86-11.01,7.57-11.92-2.95L530.2,467.74z
		 M521.29,507.26h-4.22c-1.05,0-2.04-0.97-2.04-2.09l1.48-35.77c0-1.13,0.91-2.09,2.09-2.09h1.24c1.18,0,2.04,0.97,2.04,2.09
		l1.45,35.77C523.33,506.3,522.42,507.26,521.29,507.26z M475.75,489.06l9.24-25.19c0.38-1.13,1.24-1.61,2.04-1.4l0.91,0.43
		c1.67,0.43,1.13,1.4,0.75,2.52l-6.36,20.94c-1.72,8.38,6.12,5.85,12.35,6.93c4.78,0.81,11.73,6.34,14.04-0.32l2.36-24.17
		c0.05-1.13,0.86-1.93,1.72-1.88l0.91,0.16c0.83,0.05,1.4,1.07,1.4,2.2l-1.83,27.33c-1.29,14.18-12.65,9.4-21.24,7.52
		c-8.43-1.93-20.86-0.91-16.3-14.82C475.75,489.16,475.75,489.06,475.75,489.06z M490.81,464.3c0.38-1.18,4.16-0.21,3.92,0.7
		c0-0.11-3.54,15.36-3.54,15.36c-0.16,0.7,0,1.34,0.38,1.39c0.32,0.05,0.7-0.38,0.86-1.02l3.46-15.25c0.38-0.86,3.92-0.32,3.65,0.59
		l-2.95,15.3c-0.05,0.64,0.05,1.29,0.48,1.4c0.32,0,0.75-0.48,0.86-1.13l2.95-15.3c0.16-0.64,3.73-0.48,3.71,0.54l-2.31,15.63
		c0,0.59,0.19,1.13,0.56,1.24c0.35,0.16,0.65-0.43,0.83-1.13l2.2-15.52c0.05-1.02,3.68-0.64,3.6,0.38l-2.07,19.33
		c-0.78,7.73-8.14,1.88-11.73,1.29c-4-0.86-13.18,2.63-9.93-7.52L490.81,464.3z M467.45,497.38l-3.84-1.61
		c-1.13-0.38-1.53-1.67-1.18-2.69l15.09-32.49c0.48-1.07,1.69-1.56,2.66-1.18l1.18,0.59c1.05,0.27,1.58,1.56,1.13,2.63l-12.35,33.67
		C469.79,497.27,468.44,497.76,467.45,497.38z M432.36,463.01l18.15-19.6c0.81-0.91,1.83-1.13,2.52-0.54l0.59,0.75
		c1.34,1.02,0.54,1.72-0.16,2.53l-14.02,17.02c-4.7,7.04,3.38,7.73,8.75,11.12c4.08,2.52,8.43,10.26,13.1,5.1l11.49-21.48
		c0.48-0.91,1.5-1.5,2.26-1.07l0.81,0.48c0.75,0.38,0.91,1.5,0.43,2.68l-12.14,24.54c-6.58,12.51-15.28,3.76-22.45-1.4
		c-7.14-4.78-19.06-8.64-9.51-19.82C432.25,463.17,432.3,463.12,432.36,463.01z M455.72,445.99c0.81-1.02,3.97,1.4,3.36,2.25
		c0.05-0.21-9.1,12.78-9.1,12.78c-0.43,0.54-0.59,1.13-0.29,1.4c0.29,0.21,0.89-0.05,1.32-0.59l9.05-12.78
		c0.56-0.7,3.73,1.18,3.19,1.99l-8.62,12.94c-0.35,0.54-0.46,1.18-0.16,1.45c0.3,0.11,0.86-0.05,1.26-0.75l8.59-12.94
		c0.43-0.59,3.65,1.02,3.14,1.93l-8,13.48c-0.38,0.54-0.38,1.29-0.11,1.34c0.35,0.21,0.91-0.05,1.26-0.75l7.92-13.37
		c0.48-1.02,3.79,0.86,3.22,1.72l-9.26,17.13c-3.71,6.77-8.22-1.4-11.28-3.38c-3.38-2.36-13.16-2.58-6.39-10.69L455.72,445.99z
		 M421.45,467.52l-2.93-2.9c-0.72-0.75-0.72-2.15,0-2.95l26.42-24.27c0.73-0.7,2.04-0.7,2.87,0l0.91,1.02c0.81,0.7,0.81,1.99,0,2.79
		l-24.33,26.31C423.6,468.43,422.34,468.43,421.45,467.52z M402.2,422.47l24.27-11.22c1.05-0.54,2.2-0.27,2.55,0.43l0.27,0.91
		c0.86,1.5-0.11,1.83-1.15,2.31l-19.39,10.37c-7.09,4.67,0.13,8.49,3.81,13.69c2.79,3.92,3.84,12.73,10.26,9.67l18.71-15.41
		c0.86-0.75,1.88-0.86,2.55-0.16l0.51,0.75c0.56,0.59,0.3,1.83-0.51,2.58l-20.68,18.04c-10.9,9.08-15.6-2.31-20.3-9.77
		c-4.65-7.25-14.26-15.31-1.1-22.02C402.1,422.57,402.15,422.57,402.2,422.47z M430.32,415.65c1.18-0.65,3.14,2.9,2.34,3.28
		c0.08,0-13.51,8.38-13.51,8.38c-0.54,0.38-0.81,0.97-0.62,1.18c0.24,0.38,0.78,0.32,1.32-0.16l13.26-8.16
		c0.89-0.43,3.03,2.47,2.23,3.01l-12.89,8.7c-0.62,0.32-0.86,0.97-0.73,1.18c0.16,0.32,0.86,0.21,1.42-0.16l12.94-8.7
		c0.54-0.38,2.93,2.36,2.15,2.95l-12.49,9.56c-0.56,0.32-0.83,0.97-0.62,1.18c0.24,0.38,0.81,0.27,1.34-0.22l12.49-9.34
		c0.81-0.81,3.17,2.09,2.42,2.74l-15.14,12.3c-6.12,4.94-7.09-4.4-9.18-7.57c-2.31-3.33-11.3-7.3-1.88-12.19L430.32,415.65z
		 M390.44,422.57l-1.58-3.97c-0.4-0.97,0.13-2.15,1.15-2.74l33.54-12.19c1.1-0.48,2.34,0.11,2.77,1.07l0.48,1.18
		c0.43,0.97-0.05,2.15-1.1,2.63l-32.54,15.04C392.11,424.02,390.93,423.54,390.44,422.57z M389.9,373.49l26.72-1.13
		c1.18-0.11,2.15,0.59,2.15,1.4v0.91c0.16,1.72-0.97,1.72-2.07,1.72l-21.91,2.15c-8.3,1.56-3.01,7.89-1.64,14.07
		c1.1,4.67-1.29,13.1,5.75,12.83l23.23-7.04c1.07-0.38,2.15,0,2.36,0.86l0.16,0.86c0.32,0.81-0.38,1.88-1.4,2.09l-25.96,8.86
		c-13.59,4.24-13.59-8.11-15.04-16.81c-1.53-8.43-7.25-19.6,7.33-20.73C389.72,373.49,389.85,373.49,389.9,373.49z M418.53,377.89
		c1.29-0.11,1.75,3.81,0.83,3.97c0.16-0.11-15.52,2.52-15.52,2.52c-0.73,0.11-1.26,0.54-1.15,0.91c0.05,0.32,0.67,0.43,1.29,0.38
		l15.44-2.63c0.91-0.05,1.74,3.54,0.86,3.6l-15.31,3.11c-0.7,0.16-1.13,0.59-1.05,0.97c0.05,0.32,0.62,0.38,1.32,0.32l15.33-3.06
		c0.64-0.21,1.83,3.28,0.78,3.6l-15.14,3.92c-0.7,0.16-1.13,0.54-1.02,0.91c0.05,0.43,0.7,0.59,1.34,0.43l15.12-3.97
		c0.99-0.27,2.04,3.17,1.1,3.44l-18.66,5.69c-7.49,2.15-4.89-6.87-5.61-10.53c-0.81-4.03-7.55-11.12,2.98-12.03L418.53,377.89z
		 M379.08,368.98v-4.14c0-1.18,0.89-2.09,2.01-2.09l35.85,1.45c1.07,0,1.99,0.91,1.99,2.04v1.18c0,1.13-0.91,2.15-1.99,2.15
		l-35.85,1.5C379.97,371.07,379.08,370.11,379.08,368.98z M397.29,323.44l25.16,9.13c1.05,0.48,1.66,1.4,1.34,2.25l-0.38,0.86
		c-0.43,1.61-1.34,1.07-2.55,0.7l-20.94-6.39c-8.3-1.72-5.85,6.18-6.96,12.35c-0.81,4.78-6.28,11.76,0.38,14.02l24.14,2.36
		c1.13,0.16,1.93,0.97,1.88,1.88l-0.16,0.86c-0.05,0.81-1.07,1.5-2.2,1.29l-27.33-1.72c-14.12-1.34-9.37-12.67-7.41-21.27
		c1.77-8.43,0.75-20.89,14.77-16.43C397.13,323.33,397.29,323.33,397.29,323.44z M422.07,338.53c1.23,0.32,0.08,4.08-0.83,3.92
		c0.21,0-15.36-3.6-15.36-3.6c-0.64-0.11-1.23,0-1.34,0.38c-0.08,0.38,0.35,0.7,1.07,0.86l15.2,3.54c0.91,0.27,0.35,3.92-0.54,3.71
		l-15.39-3.06c-0.62-0.11-1.21,0.16-1.29,0.43c-0.11,0.32,0.48,0.81,1.1,0.86l15.31,3.01c0.73,0.21,0.43,3.76-0.59,3.65l-15.49-2.2
		c-0.7,0-1.29,0.21-1.34,0.59c0,0.27,0.38,0.64,1.15,0.75l15.41,2.2c1.13,0.05,0.67,3.65-0.32,3.6l-19.36-2.04
		c-7.73-0.86-1.85-8.06-1.15-11.71c0.78-4.03-2.74-13.21,7.3-9.99L422.07,338.53z M389.05,315.11l1.48-3.81
		c0.51-1.07,1.64-1.56,2.74-1.13l32.54,14.98c0.99,0.48,1.53,1.66,1.1,2.79l-0.48,1.13c-0.43,1.07-1.64,1.5-2.74,1.07l-33.59-12.3
		C389.05,317.48,388.56,316.14,389.05,315.11z M423.31,280.15l19.63,18.04c0.81,0.7,1.15,1.88,0.43,2.47l-0.64,0.64
		c-1.02,1.34-1.77,0.54-2.58-0.16l-16.94-14.07c-7.06-4.62-7.84,3.49-11.17,8.86c-2.55,4.14-10.31,8.38-5.02,13.1l21.32,11.44
		c1.07,0.43,1.56,1.45,1.13,2.25l-0.43,0.75c-0.48,0.75-1.61,1.07-2.66,0.48l-24.49-12.19c-12.65-6.55-3.84-15.2,1.23-22.39
		c4.86-7.09,8.75-18.96,19.87-9.5C423.15,279.99,423.25,280.1,423.31,280.15z M440.36,303.51c1.02,0.75-1.48,3.81-2.15,3.22
		c0.08,0.16-12.83-9.18-12.83-9.18c-0.67-0.27-1.26-0.48-1.48-0.16c-0.22,0.27,0.08,0.86,0.7,1.23l12.7,9.08
		c0.75,0.59-1.21,3.76-1.96,3.22l-12.94-8.65c-0.67-0.38-1.24-0.43-1.53-0.16c-0.13,0.38,0.16,0.91,0.73,1.34l12.97,8.48
		c0.67,0.43-0.99,3.65-1.88,3.17l-13.53-7.84c-0.62-0.38-1.23-0.54-1.34-0.11c-0.19,0.27,0.11,0.81,0.72,1.13l13.45,7.89
		c0.99,0.54-0.91,3.76-1.72,3.28l-17.16-9.29c-6.85-3.7,1.4-8.27,3.41-11.28c2.31-3.38,2.58-13.21,10.63-6.34L440.36,303.51z
		 M418.77,269.25l2.95-3.01c0.78-0.81,2.07-0.81,2.93,0l24.22,26.31c0.81,0.75,0.81,2.2,0,2.95l-0.86,0.91
		c-0.81,0.86-2.15,0.86-2.93,0l-26.31-24.27C417.91,271.35,417.91,270,418.77,269.25z M463.83,249.92l11.22,24.27
		c0.62,1.13,0.27,2.15-0.48,2.47l-0.86,0.38c-1.53,0.86-1.77-0.21-2.26-1.18l-10.42-19.44c-4.65-7.09-8.54,0.16-13.56,3.81
		c-4.05,2.9-12.73,3.87-9.8,10.26l15.36,18.69c0.86,0.81,0.91,1.99,0.21,2.52l-0.75,0.54c-0.64,0.64-1.8,0.32-2.52-0.54
		l-18.15-20.62c-8.99-10.85,2.44-15.57,9.83-20.25c7.22-4.67,15.36-14.28,22.02-1.18C463.75,249.71,463.83,249.87,463.83,249.92z
		 M470.7,278.01c0.56,1.18-2.82,3.12-3.3,2.25c0.08,0.11-8.32-13.32-8.32-13.32c-0.4-0.7-0.97-0.91-1.29-0.7
		c-0.29,0.21-0.21,0.75,0.11,1.34l8.3,13.32c0.48,0.75-2.53,2.9-2.96,2.15l-8.75-12.89c-0.38-0.59-0.97-0.91-1.24-0.7
		c-0.38,0.11-0.21,0.75,0.22,1.34l8.62,12.89c0.4,0.7-2.31,3.11-3.01,2.2l-9.4-12.51c-0.43-0.54-0.94-0.8-1.29-0.54
		c-0.24,0.16-0.19,0.75,0.24,1.34l9.42,12.46c0.73,0.81-2.2,3.17-2.82,2.31l-12.24-15.04c-4.89-6.07,4.43-7.2,7.46-9.18
		c3.44-2.31,7.33-11.22,12.24-1.83L470.7,278.01z M463.83,238.16l3.89-1.61c1.02-0.32,2.2,0.11,2.63,1.18l12.41,33.62
		c0.38,0.97-0.11,2.26-1.18,2.74l-1.13,0.43c-1.05,0.38-2.34-0.11-2.71-1.13l-15.04-32.54
		C462.21,239.82,462.75,238.64,463.83,238.16z M512.94,237.57l1.02,26.85c0.11,1.07-0.54,2.1-1.4,2.1h-0.99
		c-1.66,0.05-1.53-1.02-1.61-2.04l-2.15-21.91c-1.61-8.32-7.92-3.11-14.04-1.72c-4.75,1.13-13.26-1.29-12.89,5.8l7.01,23.15
		c0.43,1.13,0,2.2-0.75,2.47l-0.91,0.21c-0.83,0.16-1.83-0.48-2.23-1.56l-8.73-25.94c-4.19-13.53,8.16-13.53,16.78-15.09
		c8.46-1.56,19.65-7.2,20.76,7.46C512.8,237.41,512.86,237.57,512.94,237.57z M508.45,266.25c0.05,1.29-3.84,1.72-3.92,0.75
		c0.05,0.16-2.6-15.52-2.6-15.52c-0.13-0.64-0.51-1.23-0.89-1.18c-0.3,0.16-0.48,0.75-0.4,1.4l2.55,15.36
		c0.19,0.91-3.44,1.88-3.65,0.91l-3.01-15.25c-0.21-0.7-0.62-1.23-0.94-1.13c-0.35,0.05-0.48,0.64-0.35,1.34l3.06,15.31
		c0.16,0.7-3.3,1.88-3.57,0.86l-3.92-15.2c-0.22-0.65-0.59-1.18-0.94-1.07c-0.38,0.11-0.51,0.7-0.32,1.34l3.97,15.15
		c0.24,1.13-3.3,2.04-3.6,1.18l-5.48-18.69c-2.17-7.63,6.79-4.89,10.37-5.64c4.03-0.81,11.12-7.52,11.97,3.01L508.45,266.25z
		 M517.37,226.77h4.19c1.07,0,2.07,0.86,2.07,1.99l-1.53,35.87c0,1.13-0.91,2.04-2.04,2.04h-1.24c-1.07,0-2.04-0.91-2.04-2.04
		l-1.48-35.87C515.3,227.63,516.21,226.77,517.37,226.77z M562.96,245.03l-9.24,25.13c-0.43,1.07-1.4,1.67-2.2,1.34l-0.83-0.38
		c-1.69-0.43-1.18-1.45-0.75-2.52l6.42-21c1.64-8.27-6.12-5.85-12.41-6.93c-4.78-0.81-11.65-6.23-14.02,0.32l-2.44,24.11
		c-0.03,1.13-0.86,2.04-1.61,1.93l-0.97-0.05c-0.91-0.11-1.53-1.13-1.4-2.31l1.69-27.28c1.37-14.07,12.78-9.45,21.4-7.52
		c8.35,1.88,20.86,0.86,16.35,14.82C562.96,244.76,562.96,244.93,562.96,245.03z M547.9,269.68c-0.43,1.24-4.22,0.21-3.97-0.75
		c0,0.27,3.54-15.36,3.54-15.36c0.13-0.64,0-1.29-0.35-1.34c-0.43-0.05-0.75,0.38-0.94,1.07l-3.52,15.2
		c-0.27,0.97-3.89,0.43-3.62-0.54l2.93-15.36c0.16-0.64,0-1.23-0.38-1.23c-0.35-0.11-0.7,0.32-0.8,1.02l-3.04,15.25
		c-0.11,0.81-3.79,0.54-3.7-0.48l2.17-15.57c0.19-0.7-0.08-1.29-0.48-1.34c-0.29-0.11-0.62,0.48-0.72,1.18l-2.2,15.52
		c-0.08,1.02-3.73,0.59-3.68-0.43l2.01-19.28c0.89-7.79,8.19-1.88,11.79-1.29c4.05,0.86,13.18-2.69,9.93,7.46L547.9,269.68z"/>
	<path class="st12" d="M373.02,366.99c0-80.77,65.52-146.34,146.29-146.34c80.85,0,146.34,65.57,146.34,146.34
		c0,80.82-65.49,146.34-146.34,146.34C438.53,513.33,373.02,447.81,373.02,366.99z M364.3,366.99c0-82.27,72.7-154.97,155-154.97
		c82.3,0,154.97,72.7,154.97,154.97c0,82.22-72.67,155.08-154.97,155.08C437,522.07,364.3,449.21,364.3,366.99z"/>
	<path class="st13" d="M664,531.05c-0.8,0.81-1.29,2.58-1.15,3.33c0.19,1.93,2.15,3.54,4.51,4.3c24.78,9.45,42.45,33.51,42.45,61.7
		c0,13.21-3.87,25.46-10.55,35.87h7.87v7.09c5.34,0.91,11.22,8.65,11.22,13.64h10.53v44.22H520.32h-3.73H307.98v-44.22h10.58
		c0-5,5.83-12.73,11.12-13.64v-7.09h7.92c-6.61-10.42-10.58-22.66-10.58-35.87c0-28.19,17.72-52.25,42.53-61.7
		c2.26-0.75,3.73-2.47,4-5.05c0.21-1.4-0.43-3.65-1.99-5.05c-43.71-40.22-70.97-97.63-70.97-161.48
		c0-96.02,61.78-177.65,147.9-207.08c-1.02-4.73-1.56-9.56-1.56-14.61c0-39.52,32.09-71.58,71.67-71.58
		c39.5,0,71.59,32.06,71.59,71.58c0,4.78-0.51,9.56-1.5,14.18C675.44,188.64,738,270.54,738,367.1
		C738,432.29,709.38,490.99,664,531.05z M712.87,684.45v-22.09c-4.03,0.11-8.48,0.11-8.48-0.16c0.24-5.53-5.02-13.96-13.29-13.7
		l-0.11-2.04h-25.29c17.27-8.16,29.19-25.78,29.19-46.08c0-22.88-15.12-42.32-35.82-48.71c-5.34-1.99-12.92-5.21-14.2-14.55
		c-1.4-9.18,7.38-15.41,8.19-16c43.02-37.48,70.22-92.58,70.22-154.13c0-89.9-58.16-166.26-138.9-193.33
		c-4.62-1.61-9.18-2.95-13.88-4.19c2.01-4.35,3.54-9.08,4.35-13.91c0.64-3.33,0.97-6.71,0.97-10.15c0-31.52-25.56-57.25-57.19-57.25
		c-31.63,0-57.3,25.72-57.3,57.25c0,3.6,0.3,7.04,1.02,10.36c0.91,4.94,2.42,9.61,4.46,14.07c-4.7,1.18-9.34,2.69-13.91,4.19
		c-80.1,27.44-137.59,103.54-137.59,192.95c0,61.92,27.52,117.29,70.94,154.72c3.49,3.6,5.45,8.81,5.07,14.12
		c-0.54,8.22-7.65,13.96-13.51,15.84c-20.76,6.39-35.82,25.83-35.82,48.71c0,20.3,11.98,37.91,29.27,46.08h-25.38l-0.11,2.04
		c-8.27-0.27-13.53,8.16-13.29,13.7c0,0.27-4.51,0.27-8.38,0.16v22.09h192.5h3.73H712.87z"/>
	<path d="M699.31,666.49v-0.97c0-6.93-5.64-12.57-12.62-12.57H523.14h-9.42H350.19c-6.96,0-12.59,5.64-12.59,12.57v0.97h-7.57v10.04
		h376.91v-10.04H699.31z M339.83,665.68c0-5.91,4.65-10.42,10.42-10.42h159.23h17.99h159.17c5.74,0,10.39,4.51,10.39,10.42v0.8
		H527.06h-17.21H339.83V665.68z M332.47,674.47v-6.16h177.38h17.21h177.38v6.15L332.47,674.47z"/>
	<path class="st9" d="M521.72,339.23c-0.11,0.97-0.43,1.99-0.86,2.63c-0.81,0-1.53,0.48-1.93,1.18l-0.75-0.59
		c-3.14-2.69-4.03-2.52-6.44,0.75l-0.4,0.7l-4.43-2.9l-1.93,2.85l-0.38-0.43c-2.01-1.72-3.3-2.2-4.99,0.54
		c-0.27,0.54-0.43,1.02-0.43,1.02l2.39,1.07c0.05-0.11,0.38-0.81,0.59-1.18c0.19,0.11,0.43,0.32,0.56,0.48
		c0.78,0.7,2.55,2.63,2.55,2.63l2.34-3.38l4.48,2.85c0.97-1.4,1.82-2.96,2.95-4.19c0.56,0.38,0.99,0.75,1.48,1.18
		c0.94,0.81,3.44,3.49,3.44,3.49c0.27-0.91,0.43-2.25,0.91-3.06c0.16,0.16,0.32,0.54,0.51,0.81c1.59,4.03-0.35,2.09-1.1,5.37
		c-1.13-1.02-1.61-2.69-1.99-3.97c-1.48,1.29-2.98,2.63-4.13,4.13c-0.86-1.18-1.29-2.52-1.85-3.87c0,0-2.44,2.68-3.84,4.08
		c-0.22-0.22-0.48-0.43-0.7-0.65c-0.7-0.75-1.88-2.31-1.88-2.31c-1.58,0.75-3.2,1.56-4.4,2.74l-0.19,0.27
		c-0.91-0.7-1.75-1.77-2.44-2.69c-1.4,1.02-2.79,2.04-4.03,3.17c-0.43-1.18-0.54-2.26-0.81-3.6c0,0-4.13,2.9-5.64,4.03
		c-0.7-0.64,0.56-4.03,0.86-5.26c-2.25,1.34-4.51,2.9-6.53,4.62c-0.24-1.29,1.16-5.37,1.16-5.37c-2.12,1.61-4.65,3.92-7.28,5.1
		c0.43-1.18,0.24-2.42,0.56-3.54c0.67-2.68-1.88-3.92-1.66-5.16h0.27c2.44,0,4.86-0.81,7.33-0.21c2.82,0.8,12.32,3.01,12.32,3.01
		c-0.59-1.93-1.56-4.83-3.03-6.87l4.54,1.56c0.43-0.8,0.75-1.72,1.29-2.42c0.59,0.38,1.18,0.86,1.75,1.18
		c0.86,0.48,3.38,1.61,3.38,1.61c0.05-1.4-0.13-2.69,0.78-3.87c0.51,0.54,1.24,0.97,1.77,1.34c0.91,0.48,3.17,1.5,3.17,1.5
		c0.27-1.29,0.51-2.63,1.13-3.81c0.54,0.38,1.15,0.7,1.77,0.97c1.1,0.43,3.54,0.97,3.54,0.97c0.13-0.97,0.35-1.93,0.8-2.68
		c0.72,0.7,1.77,1.13,2.52,1.34c0.81,0.16,1.77,0.38,2.66,0.38c0.13,0.54,0.24,0.91,0.46,1.18
		C521.93,337.94,521.93,338.53,521.72,339.23z M524.29,336.49c-1.34-2.79,2.55-5.26,1.69-7.89c-0.97-3.33-2.47-13.21,12.14-14.39
		c12.46-0.97,22.07,2.85,31.74,9.67c2.2,1.67,6.42,5.37,7.87,0.54c0.94-3.28,4.91-0.21,4.48,2.74c-0.29,1.61-3.06,3.06-7.33,2.36
		c-3.36-0.54-6.71-2.15-9.29-4.35c-0.48-0.38-1.61-1.56-1.61-1.56c-0.86,0.8-1.77,1.66-2.63,2.63c-3.17-2.36-5.18-5.91-7.04-9.18
		c-0.59,2.69-1.29,5.69-2.55,8.38c-0.46-1.18-1.1-2.36-1.83-3.33c-1.66-2.63-2.68-4.19-5.83-3.49c0.11,1.23,0.19,2.2,0.11,3.33
		c-1.72-1.61-4.13-2.74-6.42-2.79c-7.06-0.54-6.2,6.34-5.93,10.85c1.56-2.63,1.61-4.19,4.35-4.99c-0.35,3.44-0.62,6.01,2.87,7.73
		l1.96-3.28c7.6,8.75,21.7,3.92,31.5,3.6c5.72-0.16,10.47,4.4,11.63,8.7c1.24,4.62-1.05,8.54-2.28,12.73
		c-0.59,2.15,4.81,5.21,4.24,12.35c-0.56,7.68-9.75,20.41-6.85,27.44c1.15,2.58,4.46,4.99,6.82,5.96l-0.16,0.32
		c-0.38,0.59-0.97,1.07-1.72,1.66l-1.1,0.97c-1.13,1.02-2.31,1.99-2.74,3.54c-0.64,2.47,1.66,7.2,0.81,10.42
		c-0.62,0.7-2.01,2.04-2.93,2.58l-0.46-0.8c-2.01-3.17-4.89-2.58-6.85-0.11l-0.48,0.64c-0.67,0.81-1.05,1.24-1.77,1.34l-0.05-0.32
		l0.24-4.35c-0.86,0.97-5.88,7.89-5.29,0.7c-3.52-0.7-5.08,3.97-6.42,3.33c-0.11-0.54-0.19-1.07-0.11-1.56
		c0.67-1.24,1.77-3.01,2.07-4.78c1.37-1.56,3.25-2.2,5.96-0.97c2.93,1.29,5.37,0,4.91-3.6c-0.59-4.03-2.09-4.4-0.16-8.54
		c2.04-4.3-1.48-6.12-3.95-9.24c-1.07-1.4-2.09-4.83-4.32-4.24l-0.67-0.91c-7.57-9.56-14.79-5.96-23.87-0.64
		c-11.06,6.44-15.12,8.75-28.7,10.36c3.65-6.39,8.81-9.56,10.58-18.9l-1.42-2.04l-1.21,1.61c-1.75,9.18-7.79,12.57-11.3,19.92
		c-2.31,4.94-0.8,10.1,5.29,8.59c-1.02,2.36-3.49,3.06-5.32,4.57c-3.49,2.79,2.63,10.31-0.19,11.44c-0.38-0.27-0.67-0.64-0.97-0.91
		c-4.7-4.99-5.88-1.34-10.04,0.59c-1.34-0.11-2.2-0.59-2.31-1.83l-0.21-2.04c-2.23,0-3.95,1.77-5.24,3.71
		c-0.99,0-0.54-2.52-0.21-3.71c-1.64-0.48-3.76,1.77-4.57,2.85c-1.42-1.56,0.94-6.18,2.63-6.66c3.33-0.97,5.1,2.79,9.1,0
		c1.91-1.29,2.23-9.24,2.23-11.01c0-5.69-8-9.51-4.38-21.96l-0.75-2.15l-1.91,1.34c0,0-0.48,1.99-0.75,4.78
		c-0.38,3.76,0.27,6.77,1.18,9.13c-6.74-2.79-11.06-9.83-11.28-17.29c-0.21-4.3,2.5-12.03,4.91-14.5c1.4-1.45,2.98-2.63,4.16-3.44
		c1.15-0.8,2.36-1.45,2.36-1.45l1.05-2.09l2.52-1.88c0.38,0.91,0.7,1.56,1.29,1.93c0,0.7-0.08,2.52-0.81,3.22l1.48,2.26l3.92-1.83
		l2.23,2.2l4.4-1.99l2.58,1.99l4.05-2.09l3.79,1.5l3.2-2.69l1.45,1.67c1.66-1.13,3.44-2.2,4.83-3.49c0.73,0.38,2.58,1.5,4.89,1.13
		c-2.87-2.25-2.87-6.28-2.87-6.28c1.53,0.22,6.85,0.81,11.87,1.24c6.98,0.64,16.41-2.9,23.31-4.24c3.2-0.59,11.3,3.38,14.31,4.99
		c0,0,0.86-1.18,1.1-1.45c3.49-6.12,0-13.32-7.57-13.85c-0.97-0.16-2.39,0.16-3.79,0.54c-13.26,2.9-14.53,4.14-28.6-0.48
		c-1.24-0.43-5.77-2.15-7.65-2.69c-1.99,0.27-3.73,1.99-4.22,3.87c-0.54-0.48-0.86-0.97-1.21-1.61V336.49z M516.29,318.23
		c0.59-0.32,2.85-1.83,2.85-2.63v-2.47c2.79,1.88,4,3.01,5.02,5.48c1.83-3.49,5.77-6.45,13.75-6.98
		c13.13-1.18,23.31,2.85,33.56,10.26c0.32,0.27,2.74,1.99,3.3,2.09l0.4-0.38c1.8-6.28,10.66-2.47,9.67,3.92
		c-0.38,2.63-2.68,4.03-5.37,4.62c3.65,1.99,6.36,5.53,7.28,8.86c1.34,4.94-0.54,9.45-2.09,13.86l0.19,0.38
		c7.3,9.77,3.09,16.27-0.67,25.94c-2.07,5.32-3.3,9.72-2.34,12.08c0.97,2.31,4.54,4.57,7.01,5c0.43,3.12-0.59,4.19-2.9,6.01
		l-1.1,0.91c-3.06,2.69-1.72,2.63-1.24,5.8c0.21,1.5,0.86,6.34-0.29,7.95c-1.91,2.2-5.32,5.48-7.41,1.99l-0.38-0.59
		c-0.97-1.39-1.69-0.86-2.42,0.16l-0.56,0.64c-1.4,1.88-5.5,4.13-6.36,0.7c-2.44,1.77-4.46,1.4-5.32-0.21
		c-1.75,1.4-4.03,2.04-5.61,0.38c-0.3-0.16-0.38-0.48-0.56-0.75c-2.69,2.2-6.69,3.87-7.09-0.54c-0.67,0.81-1.48,2.31-1.77,3.06
		c-1.91,0.64-3.44,0.27-4.67-1.18c-0.48,0.7-1.02,1.34-1.77,1.88c-1.75,0.32-2.98-0.43-3.95-1.83l-1.4,2.15c0,0-0.94,0.16-1.32,0
		c-6.74-0.75-2.2-12.57,1.91-13.8c2.42-0.97,5.07,0.48,7.49,0.11c0.81-1.88,0.97-4.78-0.27-6.39c-4.06-6.5-6.63-7.84-5.72-15.41
		c-10.42,6.07-15.12,8.05-28.92,9.56l-0.05-0.27c-2.69,6.45,3.3,3.87,6.31,2.69v2.04c0,5.91-4.97,6.5-6.98,8.7
		c-0.38,3.17,4.54,9.67-0.62,11.76c-1.75,0.7-2.98-0.54-4.08-1.61l-0.56-0.64c-2.25-2.31-4.11,0.97-6.93,2.09h-0.3
		c-2.5,0-4.08-1.13-4.78-2.47c-0.86,0.86-0.97,1.02-1.34,2.25c-2.36,0.22-3.12-1.88-3.89-2.68l-2.09,2.58
		c-9.24-2.47-2.42-11.6,1.16-12.62c3.54-1.07,6.36,1.72,8.22,0.43c0.78-1.77,1.21-7.09,1.21-8.86c0-1.45-1.02-3.11-2.26-5.21
		c-0.62-0.32-2.07-0.91-3.25-1.45l-0.67-0.27c-2.44,2.74-4.94,4.3-8.24,5.42c0,0-2.15-1.61-4.03-3.38c-1.5-1.4-3.3-3.28-4.65-5.37
		c-0.94,0.48-2.28,0.91-3.46,0.91c3.3,3.01,3.36,7.89-4.89,9.18c1.66,2.74,1.05,7.03-4.7,7.03c-5.45,0-6.44-4.35-5.02-7.09
		c-9.61-1.67-8.43-7.73-3.68-10.15c-3.46-2.36-2.98-6.23-0.16-8.32c-1.45-1.24-1.96-3.28-0.81-5.96c-1.64-1.45-2.44-3.38-0.99-6.34
		l0.19-0.32c-2.74-1.34-3.52-3.54-3.3-6.39c0.32-2.58,2.6-4.03,4.91-4.62c0.16-0.16,0.43-0.21,0.73-0.21
		c0.19-10.47,2.87-45.16,18.9-53.54l2.87-1.4l-1.45,2.85c-4.48,9.29-8.03,43.45-8.08,52.52h0.48c3.01,0.27,6.07,1.88,6.07,5.58
		c0,0.32-0.08,0.7-0.13,1.13l1.56,1.34c0.59,0.86,4.19,5.32,6.2,5.85c0.43-4.89,3.01-11.65,5.64-14.34c1.91-1.99,4.14-3.6,6.45-4.94
		c-0.59-0.64-0.91-1.45-1.07-2.09c-0.86,0.64-1.64,1.4-2.39,2.15c-1.5-0.22-2.63-0.7-3.06-2.42c-2.77,1.77-5.13,3.01-7.33-0.16
		c2.15-2.2,1.13-2.2,1.77-4.99c0.21-0.7-2.07-2.79-1.88-4.73c-3.44-0.97-5.26-3.65-4.43-7.68c0.22-1.23,1.56-4.08,1.56-4.08
		s1.83,2.36,2.44,3.06c0.59,0.59,1.13,1.02,1.5,1.4c0.64,0.05,1.18,0.05,1.66,0.05c-0.59-3.01-5.26-3.49-5.69-8.54
		c-0.51-4.83,6.28-10.53,11.25-2.95c2.2-0.32,4.75-0.48,6.9-1.5l0.32-0.05l0.27-0.32c1.64-2.26,1.64-2.74,0.48-5.26
		c4.16-0.64,5.91,0.7,8.54,3.54c2.26-1.88,1.99-3.6,1.72-6.28c3.62,0.64,5.13,1.61,7.22,4.51l0.3-0.43c1.29-1.88,1.07-2.85,0.7-4.89
		h1.56C511.73,313.07,514.71,316.19,516.29,318.23z M478.06,337.19L478,338.1c0,0-2.95,0-4.62-0.27c-1.07-0.38-1.83-0.91-2.5-1.56
		c-0.19,3.11,2.12,3.81,4.86,3.81c2.79,0,5.18-0.81,8.11-0.05c1.67,0.43,4.97,1.18,7.22,1.83c-0.67-1.4-1.58-2.85-2.58-3.11
		c-2.55-0.65-8.06-1.45-9.02-1.67L478.06,337.19z M539.39,387.45c-1.13,8,0.99,9.83,4.78,15.73c1.58,2.47,1.53,6.28,0.43,8.92
		c-1.5,3.54-6.79,0.38-9.05,1.34c-1.77,0.48-5.45,8.06-2.6,8.7c0-0.64,2.07-4.51,3.89-4.51c0.16,0.7,0.21,3.71,1.58,4.19
		c1.05-1.29,1.91-3.49,4.08-4.19c0.21,2.9-0.27,3.28,1.5,3.71c0.78-1.24,2.44-3.87,4.11-3.87c1.39,0,1.93,1.24,2.12,2.31l0.03,0.7
		v0.27c1.8-0.32,3.25-1.66,4.32-3.28c0.29-0.97,0.67-1.88,0.97-2.63c0.43-0.86,0.81-1.4,1.18-1.99l-0.38-0.38
		c-2.15-1.66-2.2-4.3-0.62-6.23c1.1-1.5,2.55-3.12,3.12-4.83c-3.41-0.7-5.83-3.01-3.97-6.28c0.67-1.34,3.92-5.05,3.65-7.3
		C552.49,380.09,546.69,383.15,539.39,387.45z M561.05,390.08c-0.72,2.63-3.62,4.73-4.27,7.04c0.3,0.91,2.01,1.72,3.6,1.72h1.16
		c0.54,4.99-2.01,6.12-4.14,9.45c-0.08,0.8,0.03,1.56,0.65,2.04l0.24,0.21c1.24-0.43,2.58-0.86,4.46-1.02
		c1.5-0.05,4.43,1.5,4.57,0.97c0.64-2.63-2.74-4.78,0.16-10.9c0.24-0.48,0.38-0.91,0.46-1.34c-0.46-1.4-4.81-5.37-6.07-8.16
		C561.54,390.08,561.35,390.08,561.05,390.08z M451.47,393.36c-4.81,0.21-8.59,5.91,4.65,5.96c12.78,0.21,9.29-5.16,4.97-6.39
		c-1.32,0.43-2.98,0.64-4.94,0.81C454.38,393.79,452.71,393.57,451.47,393.36z M457.78,402.22c-0.54,0-1.02,0-1.66,0
		c-0.59,0-1.15,0-1.66,0c-1.1,1.07-1.66,4.03,1.88,4.03C460.31,406.25,458.86,403.4,457.78,402.22z M459.29,378.59
		c-1.5,0.38-3.38,0.54-5.5,0.54c-1.5,0-2.95-0.21-4.38-0.59c-1.13,2.31-0.03,3.33,1.91,3.71c0.21,0,0.43,0,0.7,0
		c0.59,0.21,1.23,0.21,1.99,0.21c1.61,0,4.05-0.11,5.29-0.75C460.25,381.12,460.5,380.15,459.29,378.59z M447.34,362.1
		c-1.05,0.48-2.44,1.13-2.63,2.74c-0.19,2.69,0.38,5.26,9.29,5.48c8.94,0.21,10.85-3.17,10.85-4.62c0-2.52-2.36-3.22-3.81-3.44
		C460.74,367.9,447.9,369.3,447.34,362.1z M458.86,362.37l-0.43,0.11c-0.75-3.76,2.5-38.77,7.01-52.73
		c-14.23,11.44-15.47,48.38-15.14,52.63l-0.75,0.11c0.91,3.92,8.24,2.42,9.26,0.38C458.8,362.69,458.86,362.59,458.86,362.37z
		 M460.5,371.82c-1.83,0.43-3.97,0.64-6.55,0.54c-2.09,0-3.87-0.11-5.26-0.38c-2.66,3.54,2.15,4.13,5.1,4.24
		C456.33,376.23,463.66,376.07,460.5,371.82z M459.88,384.66c-1.5,0.48-3.41,0.7-5.88,0.7c-0.97,0-1.99-0.05-2.79-0.16
		c-4.35,0.43-5.26,5.85,4.91,5.53c1.24,0,2.18-0.16,3.17-0.27c0.16-0.21,0.4-0.21,0.59-0.21
		C465.92,388.96,463.77,384.87,459.88,384.66z M483.99,393.84c-5.59-3.76-8.94-10.04-9.42-17.08c-3.12-0.48-6.61-4.67-8.14-6.71
		l-1.02-0.86c-0.56,0.7-1.26,1.13-2.18,1.56l0.16,0.32c0.38,0.75,0.86,2.09,0.7,3.28c-0.16,1.4-0.86,2.42-2.07,3.22
		c0.91,1.56,1.32,3.28,0.67,4.73c3.38,1.34,5.08,5.1,3.01,7.79c2.26,0.11,3.09-1.02,4.43-2.31c2.04,4.03,4.86,7.14,8.4,9.88
		C480.34,397.01,482.46,395.45,483.99,393.84z M538.9,321.88c-0.4,0-0.78-0.16-1.26-0.21c-1.05,0-2.04,0.21-2.63,0.97l0.43-0.16
		c0.78-0.27,2.47-0.54,3.41-0.59H538.9z M543.74,326.23c-0.91-2.04-2.26-3.49-4.32-4.13c-0.13,1.18-0.56,3.44-0.56,4.83
		c0,0.27,0,0.65,0,1.02l2.25-3.87c0,0,1.16,2.63,1.4,2.85c4.19,6.18,13,5.05,19.33,4.4c2.74-0.21,5.4-0.54,7.54-0.75
		c-1.96-0.8-3.68-1.88-5.34-3.22c-0.48,0.59-0.91,1.18-1.29,1.77c-3.09,0.38-5.77-3.17-7.44-5.37l-0.29,0.86
		c-1.13,2.95-1.72,4.19-5.08,4.89c-0.21-2.58-1.39-5.26-3.06-7.25C546.61,324.78,546.12,325.48,543.74,326.23z M522.09,353.89
		c-1.93,0.21-3.17-0.16-4.59-2.04l-0.19-0.38c-0.8,0.91-1.53,1.83-2.2,2.79c-1.88-0.16-2.55-0.7-3.6-2.31
		c-0.75,0.81-1.48,1.67-2.31,2.47h-0.48c-1.13,0-2.23-1.29-2.85-2.04l-0.78-0.64c-1.61,0.97-1.91,1.13-2.39,2.9
		c-1.91-0.21-2.53-0.38-3.92-1.88l-0.43-0.43l-0.32,0.32c-0.64,0.48-1.24,1.07-1.77,1.61c0.05,0,0.08,0.86,0,1.99l2.42-1.13
		l2.25,2.09l4.22-1.88l2.55,1.88l3.68-1.83l3.44,1.4l4-3.17l1.5,1.72l0.7-0.54C521.37,354.59,521.72,354.26,522.09,353.89z
		 M523.89,350.02c-1.21,1.45-1.26,1.56-1.13,3.11c0.48-0.8,1.4-0.75,1.88-0.64L523.89,350.02z M503.91,328.54
		c-0.72,2.74-2.93,3.33-5.29,2.47c-1.13-0.38-4.78-1.77-5.93-1.07c0.05,0.21,0.27,0.32,0.32,0.48c0,0,1.29,1.45,0.75,2.15
		c-0.54,0.81-2.25-0.05-2.25-0.05s-0.24-0.16-0.43-0.38c-2.39-2.9,0-5.32,3.3-4.99c2.09,0.21,3.81,1.29,5.8,1.66
		c1.53-0.27,1.29-1.66,1.16-2.69c2.9-0.64,4.59,0,6.74,1.72c0.48-0.64,0.86-1.34,0.86-2.31v-1.34h1.29c1.96,0,3.84,1.23,5.26,2.31
		l0.29-0.48c2.2-3.65,3.36-2.2,6.15,0.11l1.02,0.8c-0.27-1.66-0.27-3.65,0.29-5.75l-0.83,0.32c-0.03-0.16-0.81-2.04-1.61-3.44
		c-1.34,1.61-3.44,2.68-5.32,3.6c-1.37-1.83-3.2-4.19-5.08-5.48c-0.51,2.96-2.39,4.78-4.48,6.66c-1.05-1.93-2.07-3.92-3.84-5.32
		c-0.62,3.11-2.55,4.83-5.18,6.17c-1.24-1.56-2.82-3.33-4.43-4.35c-0.22,1.77-1.24,3.49-2.26,4.83c-1.85,1.61-8.65,2.31-10.74,2.52
		c-0.56-1.18-2.34-4.35-4-3.97c-3.54,0.7-3.87,4.46-1.02,7.04c2.04,1.77,3.28,2.9,3.6,4.62h1.58c0,0,6.66,0.97,9.48,1.72l0.43,0.05
		v-0.22h3.04l3.01,1.02c0.94-1.56,1.53-1.88,2.93-2.69c0.8,0.97,1.61,1.72,2.66,2.31c0.62-1.77,1.72-2.63,3.06-3.76
		c1.02,1.45,1.45,1.99,3.09,2.95c0.43-0.97,1.02-2.36,2.23-3.22l1.96,1.13c0.21,0.27,1.58,0.7,2.12,0.81l0.08-0.22
		c0.83-1.99,1.88-2.47,3.54-3.54c0.59,2.52,0.62,2.85,3.3,3.38l1.05-4.89l-1.29-1.07c-0.7-0.59-1.4-1.13-1.88-1.45
		c-0.94,1.24-1.48,2.74-2.12,4.03c0,0-2.07-1.99-3.03-2.69c-0.73-0.48-1.34-0.75-1.91-1.02c-0.54,2.09-1.74,3.11-3.41,4.24
		c0,0-0.91-0.86-1.18-1.13C505.93,329.51,504.96,328.75,503.91,328.54z M524.29,340.62c-0.35,1.23-0.78,2.31-1.05,3.01
		c0.48,0.86,0.81,1.88,1.05,2.9l2.74,1.02c10.71,1.24,13.05,2.15,23.63-0.32c12.54-2.79,12.41-4.51,24.65,1.5l0.21-0.43
		c1.72-4.35-1.32-8.38-5.96-8.7c-1.4-0.11-6.5,1.34-8.03,1.61c-10.28,2.47-14.85,1.56-25.03-1.61c-3.46-1.18-6.09-2.15-6.9-2.58
		c-2.76,1.18-0.91,4.19-0.32,5.69c0,0-3.14-1.02-3.63-1.34C525.21,341.21,524.64,340.95,524.29,340.62z"/>
	<path class="st9" d="M365.5,600.38c0-15.2,12.3-27.55,27.47-27.55s27.47,12.35,27.47,27.55c0,15.09-12.3,27.39-27.47,27.39
		S365.5,615.47,365.5,600.38z M363.48,600.38c0-16.22,13.21-29.64,29.48-29.64c16.3,0,29.54,13.43,29.54,29.64
		c0,16.22-13.24,29.54-29.54,29.54C376.69,629.92,363.48,616.6,363.48,600.38z"/>
	<path class="st9" d="M380.05,588.62c0.19,0.32,2.28-2.36,5.91-1.67c3.57,0.54,4.56,1.5,4.86,1.07c0.75-1.07-2.55-3.22-4.97-3.01
		C383.35,585.02,379.33,587.92,380.05,588.62z"/>
	<path class="st9" d="M388.27,592.17c0.78,0.38,1.21,1.56,1.21,1.56c-0.73,0.97-2.61,1.07-2.61,1.07S389.05,593.94,388.27,592.17z
		 M383.22,592.11c-1.26,0.43-2.66,2.2-2.66,2.2c1.77,1.34,5.37,0.81,5.37,0.81S382.68,594.9,383.22,592.11z M379.16,594.58
		c-0.21-0.86,3.71-4.62,7.01-4.78c2.87-0.05,4.83,3.76,4.35,4.46c-0.3,0.54-2.77,2.09-4.89,2.25
		C382.49,596.52,379.38,595.6,379.16,594.58z"/>
	<path d="M385.8,613c0,0,3.92,0.32,5.21-0.11c1.88-0.81,0.86-2.47,0.86-2.47s-2.66,0.16-3.6,0.81C387.41,612.09,385.8,613,385.8,613
		z M386.01,613.7c0,0,1.74,1.34,2.23,1.61c0.43,0.27,2.58,1.02,2.58,1.02s2.07-1.29,0.27-2.25
		C390.33,613.65,386.01,613.7,386.01,613.7z M393.53,622.4c11.98-0.32,21.51-10.04,21.51-22.02c0-11.44-8.78-20.94-19.87-21.96
		c0.08,1.24-0.13,1.93-0.13,3.17c0,2.09,0.48,2.68,0.48,4.67c0,2.2-2.07,3.17-2.07,5.26c0,1.45,0.78,2.2,1.29,3.6
		c0.89,1.83,0.89,3.01,1.26,5.1c0.48,1.83,1.85,3.65,1.29,5.53c-0.27,0.97-1.34,1.56-2.36,1.56c-0.67,0-1.61-0.16-2.28-0.32
		c-0.03,0.05,0.62,1.72,0.62,1.83c0,1.34,0.56,0.43,0.62,1.61c0.19,1.93-1.15,2.58-1.15,2.58s1.02,1.07,1.02,2.04
		c0,1.07-1.53,2.04-1.53,2.04c0.67,0.48,0.75,4.73,0.75,4.73L393.53,622.4z M370.9,600.38c0,11.22,8.48,20.57,19.44,21.86
		c0.48-0.48,0.59-1.07,0.86-1.93c0-0.64,0.05-0.97,0.05-1.56c-0.16-2.63-1.18-1.07-2.79-2.36c-0.94-0.75-1.05-0.81-2.12-1.34
		c-0.7-0.43-1.93-0.86-1.93-1.72c0-1.02,1.13-1.24,2.01-1.88c1.96-1.45,3.44-1.72,5.93-2.15c-0.19-1.13-0.83-1.77-0.83-2.31
		c0,0-2.66-0.27-4,0c-1.58-0.48-1.83-1.34-1.66-2.74c0.16-1.56,2.15-3.01,2.9-2.9c0.35,0-2.42,1.56-1.83,3.33
		c0.22,0.59,1.02,0.59,1.58,0.59c1.21,0,1.58-0.38,2.85-0.38c1.29,0,2.39,0.48,3.57,0.48c0.75,0,1.24-0.7,1.13-1.4
		c-0.38-2.09-1.83-7.36-1.83-7.79c0-0.59-2.12-2.85-2.12-5.26c0-2.31,1.96-3.38,1.96-5.75c0-2.74-1.29-4.24-1.34-6.93
		C380.61,578.42,370.9,588.24,370.9,600.38z M369.23,600.38c0-13.1,10.63-23.74,23.74-23.74c13.18,0,23.71,10.63,23.71,23.74
		c0,13.1-10.52,23.74-23.71,23.74C379.86,624.12,369.23,613.48,369.23,600.38z"/>
	<path class="st14" d="M518.71,131.7c7.42,0,13.43,6.07,13.43,13.71c0,7.53-6.02,13.71-13.43,13.71c-7.59,0-13.83-6.18-13.83-13.71
		C504.88,137.77,511.12,131.7,518.71,131.7z"/>
	<path class="st6" d="M479.48,135.91l-0.7-0.38c-5.77-2.31-0.72-14.28,5.08-11.98l0.62,0.43c3.41-5.26,7.89-9.61,13.13-12.89
		l-0.27-0.75c-2.36-5.69,9.72-10.58,12.08-4.83l0.22,0.7c2.85-0.7,5.85-1.13,8.97-1.13c3.11,0,6.36,0.54,9.37,1.29l0.29-0.7
		c2.42-5.8,14.34-0.7,11.92,5.1l-0.29,0.59c5.26,3.33,9.67,7.84,12.97,13.16l0.48-0.27c5.8-2.42,10.74,9.72,4.91,11.98l-0.56,0.27
		c0.73,2.85,1.1,5.85,1.1,8.91c0,3.33-0.43,6.44-1.23,9.56l0.54,0.16c5.77,2.47,0.7,14.45-5.07,11.98l-0.48-0.22
		c-3.3,5.21-7.89,9.72-13.16,12.94l0.19,0.48c2.28,5.8-9.69,10.74-12.08,4.89l-0.08-0.59c-2.93,0.59-5.8,0.91-8.81,0.91
		c-3.36,0-6.61-0.32-9.67-1.07l-0.27,0.59c-2.47,5.75-14.37,0.7-12.03-5.1l0.38-0.54c-5.26-3.33-9.72-7.89-12.86-13.16l-0.73,0.22
		c-5.8,2.42-10.58-9.67-4.83-12.08l0.72-0.22c-0.64-2.79-0.97-5.8-0.97-8.75C478.35,142.19,478.78,138.97,479.48,135.91z
		 M491.83,127.37l11.97,5.53c0.78-0.86,1.58-1.66,2.44-2.42l-5.32-11.98C497.34,120.87,494.3,123.93,491.83,127.37z M512.29,113.89
		l4.59,12.35c0.54-0.16,1.1-0.22,1.72-0.22c0.54,0,1.18,0.05,1.77,0.22l4.75-12.35c-2.17-0.48-4.38-0.7-6.52-0.7
		C516.46,113.19,514.39,113.41,512.29,113.89z M536.46,118.67l-5.5,11.87c0.91,0.81,1.77,1.77,2.47,2.68l12.03-5.53
		C543.14,124.15,540.08,121.09,536.46,118.67z M550.23,139.24l-12.43,4.56c0,0.48,0.05,0.97,0.05,1.61c0,0.64-0.05,1.29-0.11,1.93
		l12.3,4.73c0.48-2.15,0.73-4.35,0.73-6.66C550.77,143.32,550.53,141.23,550.23,139.24z M545.16,163.46l-11.89-5.53
		c-0.75,0.91-1.66,1.77-2.58,2.47l5.34,12.14C539.71,170.12,542.82,167.11,545.16,163.46z M524.59,177.05l-4.54-12.41
		c-0.43,0.16-0.97,0.16-1.45,0.16c-0.75,0-1.4-0.16-2.09-0.21l-4.78,12.3c2.23,0.43,4.56,0.7,6.87,0.7
		C520.59,177.58,522.63,177.42,524.59,177.05z M500.42,172l5.56-11.87c-0.89-0.81-1.69-1.66-2.5-2.52l-11.92,5.32
		C493.85,166.47,496.83,169.58,500.42,172z M499.27,145.41c0-0.7,0-1.29,0.05-1.99l-12.35-4.62c-0.38,2.09-0.67,4.35-0.67,6.61
		c0,2.04,0.3,4.14,0.62,5.96l12.35-4.46C499.27,146.49,499.27,146.01,499.27,145.41z M505.1,145.41c0-7.36,5.99-13.53,13.51-13.53
		c7.38,0,13.43,6.18,13.43,13.53c0,7.36-6.04,13.43-13.43,13.43C511.08,158.84,505.1,152.77,505.1,145.41z"/>
	<path d="M641.96,593.61c0,0,0.21,1.07,0.27,2.04c0.32,4.78-2.44,2.63-3.89,5.42c-0.75,1.56,1.5,1.61,2.42,1.61
		c1.21,0,2.66,1.72,3.41,1.72h0.21c0.73,0,2.09-1.72,3.36-1.72c0.86,0,3.12-0.05,2.44-1.61c-1.58-3.11-5.05-0.16-3.71-7.46
		c0.21-0.91,1.4-0.59,1.26,0.22c0,0-0.11,0.97-0.24,1.88c0,0.64-0.05,1.4,0.19,1.88c1.34,0.97,2.74,1.18,3.54,2.95
		c0.97,1.83-0.56,3.11-2.2,3.33c-0.32,0.11-0.75,0.11-1.29,0.11c-0.56,0-2.12,1.77-3.36,1.66h-0.21c-1.29,0.11-2.79-1.66-3.41-1.66
		c-0.97,0-1.83,0-2.63-0.59c-2.39-1.45-0.65-3.76,0.97-4.83c0.56-0.27,1.18-0.48,1.8-0.81c0.32-0.91,0-3.06-0.13-3.92
		C640.56,593.02,641.8,592.7,641.96,593.61z"/>
	<path d="M638.25,612.25c0.99,3.33,5.42,3.17,5.64,3.17h0.75c0.16,0,4.59,0.16,5.56-3.17c-1.02,0.11-3.25,0.38-5.83,0.48h-0.21
		C641.5,612.63,639.25,612.36,638.25,612.25z M650.31,610.91c-0.43-1.34-2.63-3.92-4.03-2.42l-0.19,0.32
		c-0.54,0.48-1.1,0.7-1.77,0.7c-0.64,0-1.34-0.21-1.77-0.7l-0.32-0.32c-1.53-1.5-3.62,1.07-4,2.42c0.7,0.16,3.06,0.54,5.94,0.59
		h0.21C647.17,611.44,649.5,611.07,650.31,610.91z M645.61,616.6c-0.51,0-0.86,0-0.99,0h-0.72c0,0-0.43,0-1.02,0
		c-3.03-0.27-5.61-1.77-6.01-5.1c-0.03-2.15,3.6-6.61,6.28-3.81l0.27,0.21c0.27,0.27,0.54,0.38,0.91,0.38c0.32,0,0.59-0.11,0.8-0.38
		l0.27-0.21c2.44-2.79,6.34,1.61,6.18,3.81C651.22,614.83,648.53,616.33,645.61,616.6z"/>
	<path d="M629.39,590.34c1.88-4.24,9.86-3.44,9.91,0.48c0.11,1.13-4.05,2.2-4.73,2.2c-1.77,0.32-4.03,0-5.18-1.4l-0.08-0.27
		C629.15,591.14,629.31,590.77,629.39,590.34z M635.35,591.68c0.59-0.16,1.21-0.38,1.75-0.64c0.38-0.21,0.67-0.27,0.97-0.43
		c-0.43-1.18-1.45-1.66-2.58-1.77c0.32,0.27,0.51,0.86,0.51,1.34C636,590.77,635.73,591.31,635.35,591.68z M630.54,590.93
		c0.73,0.59,1.53,0.91,2.44,0.91c-0.64-0.32-0.91-1.02-0.91-1.66c0-0.38,0-0.75,0.16-1.07
		C631.49,589.43,630.95,590.02,630.54,590.93z"/>
	<path d="M652.86,588.84c-1.02,0.11-2.07,0.59-2.39,1.77c0.7,0.38,1.48,0.75,2.28,1.02c-0.27-0.43-0.51-0.86-0.51-1.34
		C652.24,589.69,652.51,589.21,652.86,588.84z M657.96,590.93c-0.48-0.97-1.15-1.5-2.09-1.99c0.27,0.48,0.43,0.86,0.43,1.34
		c0,0.64-0.27,1.23-0.75,1.56c0.59,0,1.26-0.16,1.77-0.48C657.58,591.2,657.83,591.04,657.96,590.93z M659.06,590.34
		c0.11,0.43,0.3,0.81,0.11,1.02l-0.11,0.27c-2.6,3.17-9.88,0.54-9.88-0.81c0,0,0-0.16,0.05-0.54
		C650.47,586.42,657.37,586.53,659.06,590.34z"/>
	<path d="M667.63,600.38c0,13.1-10.58,23.74-23.74,23.74c-13.1,0-23.74-10.63-23.74-23.74c0-13.1,10.63-23.74,23.74-23.74
		C657.05,576.64,667.63,587.28,667.63,600.38z M639.41,585.18c0,0-3.01-1.4-5.32-1.4c-1.29,0-3.44,0.16-4.64,0.54
		c-0.24,0.11-0.46,0-0.62-0.05c-4.27,3.97-6.96,9.67-6.96,16.11c0,12.19,9.83,22.02,22.02,22.02c12.24,0,22.12-9.83,22.12-22.02
		c0-6.34-2.58-11.92-6.85-16.06c-0.19,0-0.54-0.05-1.21-0.16c-0.86-0.22-1.93-0.38-3.54-0.38c-1.56,0-3.84,0.75-5.24,1.4
		c-0.8,0.38-1.34-0.86-0.59-1.02c0,0,0.8-0.48,1.93-0.81c1.05-0.43,2.58-0.86,3.89-0.86c1.13,0,1.99,0.11,2.74,0.21
		c-3.68-2.79-8.24-4.46-13.26-4.46c-5.02,0-9.67,1.66-13.37,4.51c0.8-0.16,1.99-0.27,3.57-0.27c1.72,0,4.16,0.75,5.75,1.67
		C640.64,584.32,640.13,585.56,639.41,585.18z"/>
	<path class="st15" d="M518.65,135.79c5.2,0,9.42,4.26,9.42,9.62c0,5.28-4.22,9.62-9.42,9.62c-5.32,0-9.7-4.34-9.7-9.62
		C508.95,140.05,513.32,135.79,518.65,135.79z"/>
	<path class="st10" d="M479.02,550.65 M479.48,552.1l-0.16,0.43c-0.16,2.31,2.04,3.33,1.5,7.2c-0.81,4.94-6.04,7.36-8.3,8.16
		c1.83-2.36,1.24-5.05,1.07-9.4c-0.32,0.32-0.7,0.64-1.13,0.86c-4.75,2.95-10.39-0.43-10.39-0.43s2.93-3.97,6.98-7.62
		c1.88-1.61,4.32-1.61,6.47-1.24c0.13-0.11,0.21-0.38,0.38-0.59c0.81-1.34,0.81-3.6,1.5-5.42c1.26-2.79,1.26-3.92,2.93-5.15
		c5.23-4.19,10.47-0.54,10.47-0.54s-5.08-1.02-7.2,1.13c-1.53,1.77-2.58,3.97-3.01,4.89c2.09,0.48,5.08,1.5,6.04,4.4
		c1.61,4.73-1.29,6.34,4.91,9.29c-1.29-0.48-8.81,0.43-11.22-4.13C480.02,553.28,479.7,552.64,479.48,552.1z"/>
	<path class="st10" d="M557.83,550.65 M557.4,552.1l0.16,0.43c0.13,2.31-2.01,3.33-1.45,7.2c0.73,4.94,6.04,7.36,8.24,8.16
		c-1.77-2.36-1.23-5.05-1.1-9.4c0.35,0.32,0.78,0.64,1.1,0.86c4.86,2.95,10.42-0.43,10.42-0.43s-2.98-3.97-6.93-7.62
		c-1.93-1.61-4.35-1.61-6.47-1.24c-0.16-0.11-0.32-0.38-0.46-0.59c-0.72-1.34-0.72-3.6-1.53-5.42c-1.13-2.79-1.21-3.92-2.87-5.15
		c-5.21-4.19-10.39-0.54-10.39-0.54s4.97-1.02,7.17,1.13c1.58,1.77,2.52,3.97,3.01,4.89c-2.15,0.48-5.1,1.5-6.07,4.4
		c-1.58,4.73,1.29,6.34-4.94,9.29c1.32-0.48,8.86,0.43,11.3-4.13C556.89,553.28,557.19,552.64,557.4,552.1z"/>
	<path class="st10" d="M435.39,649.52c-0.91,0.54-1.93,0.97-3.09,1.39c-4.11,1.13-7.38-1.99-7.38-1.99s2.79-2.2,6.42-3.87
		c1.93-0.91,4.05-0.32,5.56,0.43c0.67-0.75,1.34-1.34,2.12-1.77c-1.91-0.38-3.2-1.29-3.2-1.29s2.66-3.33,6.31-6.39
		c2.39-1.99,5.77-1.18,7.84-0.38c0.54-1.88,1.96-3.44,3.06-4.4c-2.95,2.31-7.84,2.26-7.84,2.26s0.73-3.76,2.52-7.68
		c0.91-1.93,3.44-2.95,5.53-3.44l0.05-0.38c-1.18-2.42-0.27-5.42,0.48-7.2v-0.59l-0.19-2.63c-0.3,1.5-0.78,3.12-1.48,4.78
		c-2.09,4.29-7.6,4.56-7.6,4.56s0.38-4.19,1.56-8.59c1.07-3.54,5.72-4.46,7.22-4.67v-0.7c-1.99-2.58-1.61-6.61-1.4-8.22l-0.22-0.7
		c-0.13,0.59-0.27,1.23-0.48,1.88c-1.53,4.94-7.57,6.18-7.57,6.18s-0.43-4.51,0.22-9.34c0.38-3.06,3.3-4.89,5.4-5.8
		c-0.13-0.7-0.48-2.04-0.75-3.54c-2.04-2.9-1.23-7.63-1.23-7.63h0.21c-0.13-1.13-0.21-2.2-0.21-3.06c-2.6,3.44-7.55,3.28-7.55,3.28
		s0.59-4.14,2.2-8.54c1.21-3.44,5.34-4.24,7.28-4.4c0.35-1.07,0.78-1.93,1.26-2.69c0.19-0.75,0.48-1.4,0.7-2.09
		c-3.62,2.68-8.38,1.66-8.38,1.66s1.58-4.62,4.16-9.56c2.31-4.03,8.19-3.6,9.93-3.49l0.38,0.16v0.22c0.11,0.38,0.24,0.91,0.48,1.45
		l0.32-0.38c0.73-3.81,5.34-6.5,5.34-6.5c8.35-6.61,23.84-16.32,33.19-6.5c0.54,0.48,0.97,1.02,1.29,1.56l-2.2,1.24l-0.19-0.27
		c-3.73-5.1-10.82-4.78-16.27-2.63c-6.2,2.42-12.83,7.63-14.42,8.86l-0.27,0.27c0.62,1.66,1.34,4.19,1.34,6.93
		c0.05,5.32-5.32,8.27-5.32,8.27s-0.99-2.69-1.77-6.18c0,0.43,0,0.86,0,1.23c0,4.35-3.97,6.55-3.97,6.55s-0.35-1.18-0.81-2.95
		c-0.27,0.48-0.54,1.18-0.97,1.99c1.23,1.4,2.82,3.44,3.84,6.12c1.72,4.67-2.12,8.97-2.12,8.97s-2.2-2.52-4.3-5.85
		c-0.38,1.13-0.48,1.99-0.56,2.47c-0.16,0.8,0,2.63,0.19,4.72c1.61,0.54,3.71,1.56,5.64,3.12c3.84,3.22,2.58,8.75,2.58,8.75
		s-3.22-1.02-6.77-2.9c0.03,0.32,0.11,0.59,0.16,0.7c0.86,2.9,2.04,5.75,2.87,8.7c1.72,0.75,3.92,1.93,5.99,3.87
		c3.81,3.6,2.31,9.67,2.31,9.67s-3.3-1.34-6.95-3.6c0.13,1.77,0.38,3.76,0.43,5.64c1.1,1.24,2.74,3.17,3.79,5.69
		c1.96,4.46-1.21,9.08-1.21,9.08s-1.29-1.29-2.87-3.33c-0.13,0.54-0.32,0.91-0.56,1.56c0.05,0.59,0.13,1.13,0.24,1.88
		c0.13,1.02,0.13,1.93-0.48,3.06c0.62,1.56,1.15,3.81,1.29,6.28c0.11,4.78-4.51,7.41-4.51,7.41s-1.23-3.38-2.04-7.46
		c-1.15,1.34-2.77,2.9-4.97,4.13c-0.35,0.27-0.78,0.48-1.07,0.59c-0.19,1.5-0.62,4.56-2.15,7.52c-2.34,4.03-7.52,3.76-7.52,3.76
		S434.56,652.58,435.39,649.52z"/>
	<path class="st10" d="M601.55,649.52c0.86,0.54,1.88,0.97,3.01,1.39c4.11,1.13,7.44-1.99,7.44-1.99s-2.85-2.2-6.42-3.87
		c-1.93-0.91-4.03-0.32-5.67,0.43c-0.54-0.75-1.29-1.34-2.09-1.77c1.83-0.38,3.25-1.29,3.25-1.29s-2.66-3.33-6.26-6.39
		c-2.44-1.99-5.85-1.18-7.89-0.38c-0.54-1.88-1.93-3.44-3.04-4.4c2.98,2.31,7.79,2.26,7.79,2.26s-0.64-3.76-2.47-7.68
		c-0.86-1.93-3.41-2.95-5.58-3.44v-0.38c1.13-2.42,0.27-5.42-0.54-7.2l0.05-0.59l0.21-2.63c0.27,1.5,0.65,3.12,1.45,4.78
		c2.07,4.29,7.57,4.56,7.57,4.56s-0.38-4.19-1.5-8.59c-1.15-3.54-5.72-4.46-7.25-4.67v-0.7c1.96-2.58,1.61-6.61,1.37-8.22l0.24-0.7
		c0.11,0.59,0.29,1.23,0.43,1.88c1.58,4.94,7.63,6.18,7.63,6.18s0.32-4.51-0.3-9.34c-0.3-3.06-3.28-4.89-5.37-5.8
		c0.21-0.7,0.48-2.04,0.75-3.54c2.04-2.9,1.32-7.63,1.32-7.63h-0.29c0.05-1.13,0.16-2.2,0.16-3.06c2.71,3.44,7.65,3.28,7.65,3.28
		s-0.62-4.14-2.25-8.54c-1.18-3.44-5.26-4.24-7.28-4.4c-0.27-1.07-0.75-1.93-1.18-2.69c-0.27-0.75-0.48-1.4-0.78-2.09
		c3.62,2.68,8.38,1.66,8.38,1.66s-1.56-4.62-4.16-9.56c-2.31-4.03-8.19-3.6-9.85-3.49l-0.43,0.16l0.03,0.22
		c-0.13,0.38-0.29,0.91-0.51,1.45l-0.29-0.38c-0.75-3.81-5.4-6.5-5.4-6.5c-8.3-6.61-23.95-16.32-33.16-6.5
		c-0.48,0.48-0.91,1.02-1.26,1.56l2.2,1.24l0.19-0.27c3.73-5.1,10.82-4.78,16.27-2.63c6.18,2.42,12.86,7.63,14.37,8.86l0.32,0.27
		c-0.62,1.66-1.34,4.19-1.42,6.93c0,5.32,5.32,8.27,5.32,8.27s1.05-2.69,1.91-6.18c0,0.43,0,0.86,0,1.23c0,4.35,3.92,6.55,3.92,6.55
		s0.32-1.18,0.78-2.95c0.29,0.48,0.56,1.18,0.94,1.99c-1.18,1.4-2.82,3.44-3.81,6.12c-1.69,4.67,2.15,8.97,2.15,8.97
		s2.2-2.52,4.32-5.85c0.27,1.13,0.43,1.99,0.54,2.47c0.11,0.8,0,2.63-0.16,4.72c-1.67,0.54-3.73,1.56-5.67,3.12
		c-3.84,3.22-2.58,8.75-2.58,8.75s3.22-1.02,6.71-2.9c0,0.32-0.11,0.59-0.13,0.7c-0.89,2.9-2.01,5.75-2.93,8.7
		c-1.64,0.75-3.95,1.93-5.93,3.87c-3.84,3.6-2.31,9.67-2.31,9.67s3.3-1.34,6.9-3.6c-0.05,1.77-0.3,3.76-0.35,5.64
		c-1.21,1.24-2.74,3.17-3.81,5.69c-1.93,4.46,1.24,9.08,1.24,9.08s1.23-1.29,2.82-3.33c0.11,0.54,0.32,0.91,0.59,1.56
		c-0.05,0.59-0.11,1.13-0.27,1.88c-0.21,1.02-0.13,1.93,0.54,3.06c-0.67,1.56-1.23,3.81-1.29,6.28c-0.13,4.78,4.4,7.41,4.4,7.41
		s1.34-3.38,2.12-7.46c1.18,1.34,2.76,2.9,4.97,4.13c0.38,0.27,0.81,0.48,1.1,0.59c0.08,1.5,0.56,4.56,2.15,7.52
		c2.26,4.03,7.54,3.76,7.54,3.76S602.32,652.58,601.55,649.52z"/>
</g>
</svg>
